<svg fill="#000000" xmlns="http://www.w3.org/2000/svg"  viewBox="0 0 50 50" width="50px" height="50px"><path d="M43.112,22.152c0,0,3.946,0.2,3.946-2.122c0-3.032-5.253-5.767-5.253-5.767s0.822-1.747,1.336-2.723c0.514-0.976,1.96-4.785,2.089-5.655c0.163-1.093-0.085-1.437-0.085-1.437c-0.357,2.344-4.171,9.09-4.474,9.322c-3.722-1.745-8.835-2.231-8.835-2.231S26.831,1,22.124,1c-4.667,0-4.644,9.025-4.644,9.025s-1.319-2.559-2.974-2.559c-2.419,0-3.214,3.661-3.214,7.63c-4.779,0-8.799,1.068-9.158,1.171c-0.36,0.103-1.49,0.925-0.976,0.822c1.045-0.335,5.955-1.095,10.254-0.721c0.236,3.773,2.438,8.686,2.438,8.686s-4.722,6.841-4.722,11.728c0,1.286,0.56,3.637,3.951,3.637c2.839,0,6.028-1.708,6.629-2.055c-0.524,0.749-0.912,2.173-0.912,2.826c0,0.536,0.318,2.055,2.507,2.055c2.813,0,5.955-2.156,5.955-2.156s2.966,4.931,5.502,7.191C33.444,48.889,34.097,49,34.097,49s-2.519-2.426-5.838-8.676c3.084-1.907,6.297-6.403,6.297-6.403s0.378,0.012,3.307,0.012c4.59,0,11.11-0.966,11.11-4.614C48.973,25.554,43.112,22.152,43.112,22.152z M43.625,19.886c0,1.331-1.267,1.315-1.267,1.315l-0.962,0.064c0,0-1.828-0.962-2.935-1.411c0,0,1.716-2.646,2.117-3.384C40.883,16.646,43.625,18.362,43.625,19.886z M24.421,6.31c2.157,0,5.237,5.093,5.237,5.093s-4.806-0.431-8.761,1.894C21.005,9.63,22.24,6.31,24.421,6.31z M15.873,10.437c0.685,0,1.357,0.834,1.633,1.541c0,0.467,0.243,3.195,0.243,3.195l-3.961-0.149C13.788,11.45,15.188,10.437,15.873,10.437z M15.463,35.247c-2.164,0-2.611-1.206-2.611-2.292c0-2.459,1.962-5.897,1.962-5.897s2.197,4.625,6.036,6.577C18.945,34.753,17.374,35.247,15.463,35.247z M22.491,40.09c-1.517,0-1.702-0.984-1.702-1.213c0-0.706,0.552-1.54,0.552-1.54s2.551-1.724,2.712-1.908l1.885,3.517C25.938,38.946,24.008,40.09,22.491,40.09z M27.225,38.171c-0.923-1.615-1.604-3.302-1.604-3.302s3.794,0.246,5.832-1.862c-1.271,0.572-3.295,1.292-5.653,1.075c4.928-4.341,7.801-7.486,10.233-10.737c-0.21-0.252-1.321-1.028-1.594-1.159c-1.468,1.767-7.172,7.869-12.456,10.889c-6.689-3.649-8.094-14.385-8.236-16.615l3.654,0.351c0,0-1.373,2.435-1.373,4.227s0.214,1.886,0.214,1.886s-0.046-3.123,1.883-5.535c1.468,7.822,3,11.829,4.194,14.218c0.608-0.252,1.741-0.755,1.741-0.755s-3.376-9.73-3.187-16.315c1.531-0.818,3.796-1.661,6.354-1.661c6.731,0,12.142,2.898,12.142,2.898l-2.118,2.957c0,0-1.887-3.418-4.55-4.026c1.405,1.048,2.978,2.433,3.796,4.425c-5.578-2.181-12.309-3.334-14.469-3.586c-0.189,0.797-0.163,1.935-0.163,1.935s9.027,1.667,15.597,5.426C37.416,31.126,28.462,37.438,27.225,38.171z M35.776,32.027c0,0,2.804-3.678,2.758-8.551c0,0,4.528,2.804,4.528,5.54C43.062,32.073,35.776,32.027,35.776,32.027z"/></svg>