<svg height="487pt" viewBox="0 0 487.676 487" width="487pt" xmlns="http://www.w3.org/2000/svg"><path d="m10.386719 219.941406c-.675781 1.644532-1.054688 3.441406-1.054688 5.328125v26.503907c2.683594-2.328126 6.164063-3.742188 9.984375-3.742188.109375 0 .210938.015625.316406.015625v-4.769531c0-5.710938.96875-11.183594 2.707032-16.300782-4.683594-1.035156-8.816406-3.550781-11.953125-7.035156zm0 0" fill="#4671c6"/><path d="m9.332031 255.773438c-.5625 0-1.128906-.117188-1.660156-.363282-1.425781-.648437-2.339844-2.070312-2.339844-3.636718v-26.5c0-2.359376.457031-4.664063 1.355469-6.851563.523438-1.273437 1.664062-2.1875 3.019531-2.421875 1.347657-.230469 2.734375.242188 3.652344 1.265625 2.667969 2.960937 6.070313 4.972656 9.84375 5.808594 1.109375.25 2.0625.957031 2.621094 1.945312.554687.992188.664062 2.171875.300781 3.25-1.652344 4.867188-2.492188 9.917969-2.492188 15.011719v4.769531c0 1.074219-.429687 2.101563-1.195312 2.855469-.765625.75-1.851562 1.179688-2.878906 1.144531-.070313 0-.285156-.011719-.355469-.015625-2.582031 0-5.199219.980469-7.253906 2.761719-.738281.640625-1.671875.976563-2.617188.976563zm4-28.199219v17.417969c.753907-.246094 1.523438-.449219 2.300781-.601563v-1.113281c0-4.609375.585938-9.1875 1.742188-13.660156-1.402344-.5625-2.753906-1.246094-4.042969-2.042969zm0 0" fill="#3762cc"/><path d="m414.988281 311.507812c0-94.394531-76.558593-170.917968-171-170.917968-94.4375 0-171 76.523437-171 170.917968 0 94.394532 76.5625 170.917969 171 170.917969 94.441407 0 171-76.523437 171-170.917969zm0 0" fill="#6bdddd"/><g fill="#3762cc"><path d="m243.988281 486.425781c-27.144531 0-52.488281-18.503906-71.359375-52.101562-18.457031-32.871094-28.625-76.488281-28.625-122.816407 0-46.328124 10.167969-89.945312 28.625-122.816406 18.871094-33.597656 44.210938-52.101562 71.359375-52.101562 27.152344 0 52.492188 18.503906 71.363281 52.101562 18.457032 32.871094 28.625 76.488282 28.625 122.816406 0 46.328126-10.167968 89.945313-28.625 122.816407-18.871093 33.601562-44.214843 52.101562-71.363281 52.101562zm0-341.835937c-50.71875 0-91.980469 74.878906-91.980469 166.917968 0 92.039063 41.261719 166.917969 91.980469 166.917969 50.722657 0 91.984375-74.878906 91.984375-166.917969 0-92.039062-41.261718-166.917968-91.984375-166.917968zm0 0"/><path d="m241.199219 247.140625c-46.746094 0-90.691407-18.195313-123.746094-51.234375-1.539063-1.539062-1.566406-4.027344-.058594-5.597656 33.332031-34.746094 78.203125-53.882813 126.34375-53.882813 46.742188 0 90.691407 18.195313 123.742188 51.230469 1.542969 1.542969 1.566406 4.03125.058593 5.601562-33.328124 34.746094-78.195312 53.882813-126.339843 53.882813zm-115.253907-54.121094c31.199219 29.773438 71.964844 46.121094 115.253907 46.121094 44.621093 0 86.289062-17.222656 117.789062-48.59375-31.199219-29.773437-71.964843-46.117187-115.253906-46.117187-44.617187-.003907-86.289063 17.222656-117.789063 48.589843zm0 0"/><path d="m244.453125 486.425781c-46.742187 0-90.6875-18.195312-123.742187-51.230469-1.539063-1.542968-1.566407-4.027343-.058594-5.597656 33.328125-34.75 78.199218-53.886718 126.34375-53.886718 46.742187 0 90.691406 18.195312 123.742187 51.234374 1.539063 1.539063 1.566407 4.023438.058594 5.597657-33.328125 34.746093-78.195313 53.882812-126.34375 53.882812zm-115.25-54.121093c31.199219 29.773437 71.96875 46.125 115.25 46.125 44.625 0 86.292969-17.226563 117.792969-48.59375-31.199219-29.773438-71.96875-46.121094-115.253906-46.121094-44.617188 0-86.292969 17.222656-117.789063 48.589844zm0 0"/><path d="m414.988281 320.640625h-342c-2.207031 0-4-1.792969-4-4s1.792969-4 4-4h342c2.210938 0 4 1.792969 4 4s-1.789062 4-4 4zm0 0"/><path d="m243.988281 486.425781c-96.496093 0-175-78.46875-175-174.917969 0-96.449218 78.503907-174.917968 175-174.917968 96.496094 0 175 78.46875 175 174.917968 0 96.449219-78.503906 174.917969-175 174.917969zm0-341.835937c-92.082031 0-167 74.878906-167 166.917968 0 92.039063 74.917969 166.917969 167 166.917969 92.085938 0 167-74.878906 167-166.917969 0-92.039062-74.914062-166.917968-167-166.917968zm0 0"/></g><path d="m241.28125 184.097656c-.769531-.117187-1.515625-.261718-2.234375-.433594-5.351563-1.253906-10.082031-4.390624-13.496094-8.730468l-3.425781-4.355469c-.507812-.644531-.84375-1.398437-1.015625-2.195313-10.46875.925782-19.679687 6.25-25.808594 14.117188h-.003906c-.023437.03125-.042969.058594-.070313.089844-.199218.257812-.390624.523437-.585937.785156-.121094.164062-.242187.328125-.359375.492188-.183594.257812-.359375.523437-.539062.785156-.117188.179687-.234376.359375-.351563.535156-.167969.261719-.335937.523438-.496094.789062-.117187.191407-.230469.382813-.34375.574219-.152343.261719-.308593.527344-.453125.796875-.113281.199219-.21875.40625-.328125.609375-.140625.265625-.28125.527344-.414062.800781-.109375.214844-.210938.433594-.3125.652344-.125.265625-.253907.523438-.371094.792969-.117187.257813-.226563.523437-.335937.785156-.175782.421875-.34375.847657-.507813 1.273438-.109375.292969-.21875.585937-.320313.878906-.082031.234375-.15625.46875-.230468.707031-.09375.285156-.1875.566406-.273438.855469-.070312.238281-.136718.480469-.203125.722656-.078125.289063-.160156.582031-.234375.875-.058594.242188-.113281.484375-.171875.726563-.066406.296875-.132812.597656-.195312.902344-.046875.242187-.09375.480468-.140625.722656-.054688.3125-.109375.628906-.15625.945312-.035156.234375-.074219.46875-.105469.707032-.046875.332031-.085937.667968-.121094 1.003906-.023437.222656-.050781.445312-.070312.667968-.035157.375-.058594.753907-.078125 1.132813-.011719.1875-.03125.375-.039063.566406-.023437.566407-.039062 1.140625-.039062 1.714844v7.4375h117.046875v-7.4375c0-.585937-.015625-1.167969-.042969-1.746094-.007813-.195312-.023437-.390625-.039063-.585937-.023437-.378906-.046874-.757813-.082031-1.136719-.023437-.234375-.046875-.46875-.074219-.703125-.039062-.332031-.074218-.664062-.121093-.992188-.035157-.253906-.074219-.503906-.113281-.753906-.046876-.304687-.101563-.605468-.15625-.910156-.050782-.261719-.097657-.523438-.152344-.785156-.058594-.28125-.121094-.554688-.183594-.828125-.066406-.277344-.128906-.558594-.199219-.835938-.058593-.222656-.121093-.445312-.183593-.667969-.335938-1.214843-.726563-2.402343-1.179688-3.558593-.035156-.097657-.074219-.195313-.109375-.292969-.152344-.386719-.316406-.765625-.480469-1.140625-.046875-.105469-.09375-.210937-.140625-.316406-.171875-.382813-.351562-.761719-.535156-1.140625-.042969-.082032-.082031-.167969-.125-.25-.195313-.398438-.402344-.792969-.613281-1.183594-.019532-.03125-.039063-.066406-.058594-.101562-6.058594-11.035157-17.53125-18.648438-30.820312-19.191407l-5 6.453125c-5.410157 6.972656-14.109376 10.675782-22.804688 9.375zm0 0" fill="#e0ebfc"/><path d="m269.082031 168.269531-5.003906 6.453125c-5.402344 6.972656-14.101563 10.675782-22.796875 9.375-.769531-.117187-1.515625-.261718-2.234375-.433594-5.351563-1.253906-10.082031-4.390624-13.496094-8.730468l-3.425781-4.355469c-.507812-.644531-.84375-1.398437-1.015625-2.195313-1.875.164063-3.707031.480469-5.488281.914063l2.554687 4.90625 3.175781 4.035156c4.207032 5.355469 10.058594 9.132813 16.476563 10.632813.882813.207031 1.777344.378906 2.660156.511718 1.40625.210938 2.839844.316407 4.261719.316407 9.066406 0 17.875-4.375 23.554688-11.703125l3.226562-4.160156 3.238281-4.871094zm0 0" fill="#a4c9ff"/><path d="m221.109375 168.382812c.078125.367188.195313.726563.347656 1.070313.019531.042969.039063.089844.0625.136719.066407.136718.136719.273437.214844.40625.078125.132812.164063.257812.25.382812.050781.066406.089844.136719.140625.199219l3.425781 4.355469c3.414063 4.335937 8.144531 7.476562 13.496094 8.730468.71875.171876 1.464844.316407 2.234375.433594 8.695312 1.300782 17.394531-2.398437 22.796875-9.375l4.992187-6.441406c.070313-.347656.117188-.695312.117188-1.054688v-14.863281h-.003906v-.167969c-7.210938 3.777344-15.40625 5.917969-24.097656 5.917969-8.703126 0-16.898438-2.144531-24.117188-5.925781v15.070312c0 .382813.054688.757813.136719 1.125zm0 0" fill="#f9cfcf"/><path d="m297.730469 85.464844c-.109375 0-.21875.011718-.328125.015625v-4.972657c0-29.066406-23.421875-52.628906-52.316406-52.628906-28.894532 0-52.316407 23.5625-52.316407 52.628906v4.972657c-.113281-.003907-.21875-.015625-.328125-.015625-8.816406 0-15.960937 7.1875-15.960937 16.054687 0 8.867188 7.144531 16.054688 15.960937 16.054688.578125 0 1.148438-.03125 1.710938-.09375 5.398437 23.285156 26.144531 40.632812 50.933594 40.632812 24.789062 0 45.535156-17.347656 50.933593-40.632812.5625.058593 1.132813.09375 1.710938.09375 8.816406 0 15.960937-7.1875 15.960937-16.054688 0-8.867187-7.144531-16.054687-15.960937-16.054687zm0 0" fill="#f9cfcf"/><path d="m217.625 103.589844c-2.9375 0-5.320312-2.382813-5.320312-5.320313v-8.984375c0-2.9375 2.382812-5.320312 5.320312-5.320312s5.320312 2.382812 5.320312 5.320312v8.984375c0 2.9375-2.382812 5.320313-5.320312 5.320313zm0 0" fill="#3762cc"/><path d="m272.863281 103.589844c-2.9375 0-5.320312-2.382813-5.320312-5.320313v-8.984375c0-2.9375 2.382812-5.320312 5.320312-5.320312s5.320313 2.382812 5.320313 5.320312v8.984375c0 2.9375-2.382813 5.320313-5.320313 5.320313zm0 0" fill="#3762cc"/><path d="m245.242188 133.03125c-8.714844 0-15.808594-5.863281-15.808594-13.066406 0-2.207032 1.792968-4 4-4 2.207031 0 4 1.792968 4 4 0 2.695312 3.652344 5.066406 7.808594 5.066406 4.160156 0 7.8125-2.371094 7.8125-5.066406 0-2.207032 1.792968-4 4-4 2.207031 0 4 1.792968 4 4 0 7.207031-7.089844 13.066406-15.8125 13.066406zm0 0" fill="#3762cc"/><path d="m245.085938 162.117188c-25.230469 0-46.996094-16.53125-54.011719-40.585938-10.371094-.707031-18.597657-9.410156-18.597657-20.011719 0-9.800781 7.035157-17.980469 16.292969-19.714843v-1.296876c0-31.226562 25.261719-56.628906 56.316407-56.628906 31.050781 0 56.3125 25.402344 56.3125 56.628906v1.296876c9.261718 1.734374 16.292968 9.914062 16.292968 19.714843 0 10.601563-8.222656 19.304688-18.597656 20.011719-7.015625 24.054688-28.78125 40.585938-54.007812 40.585938zm-50.933594-48.636719c1.839844 0 3.46875 1.269531 3.894531 3.097656 5.125 22.101563 24.464844 37.539063 47.039063 37.539063 22.570312 0 41.910156-15.4375 47.039062-37.539063.457031-1.96875 2.304688-3.296875 4.324219-3.074219.421875.042969.847656.070313 1.28125.070313 6.597656 0 11.960937-5.410157 11.960937-12.054688 0-6.628906-5.328125-12.019531-11.890625-12.058593-.152343.007812-.324219.015624-.398437.015624-1.046875 0-2.054688-.410156-2.800782-1.144531-.765624-.753906-1.199218-1.78125-1.199218-2.855469v-4.96875c0-26.816406-21.675782-48.632812-48.316406-48.632812-26.640626 0-48.3125 21.816406-48.3125 48.632812v4.96875c0 1.074219-.433594 2.101563-1.199219 2.855469-.765625.753907-1.867188 1.152344-2.875 1.144531-.070313 0-.296875-.011718-.371094-.015624-6.484375 0-11.851563 5.410156-11.851563 12.058593 0 6.644531 5.367188 12.054688 11.960938 12.054688.433594 0 .863281-.027344 1.285156-.070313.144532-.015625.289063-.023437.429688-.023437zm0 0" fill="#3762cc"/><path d="m304.492188 216.832031h-117.042969c-2.207031 0-4-1.792969-4-4v-7.4375c0-.632812.019531-1.265625.042969-1.894531l.03125-.472656c.035156-.585938.0625-1.003906.101562-1.417969l.054688-.515625c0-.003906.023437-.210938.023437-.21875.039063-.375.082031-.75.136719-1.125.03125-.234375.070312-.503906.113281-.773438.054687-.347656.113281-.703124.179687-1.054687.042969-.242187.09375-.515625.148438-.789063.066406-.320312.140625-.65625.214844-.992187l.195312-.8125c.082032-.335937.171875-.664063.261719-.988281l.214844-.765625c.101562-.335938.203125-.65625.308593-.976563l.257813-.785156c.078125-.234375.175781-.496094.277344-.757812l.074219-.195313c.179687-.480469.371093-.960937.566406-1.429687.152344-.367188.253906-.609376.363281-.851563l.761719-1.605469c.121094-.246094.253906-.5.386718-.753906l.433594-.808594c.164063-.292968.332032-.585937.503906-.878906l.371094-.625c.1875-.304688.371094-.59375.554688-.882812l.402344-.601563c.191406-.289063.382812-.574219.589843-.863281l.300781-.417969c.308594-.421875.527344-.714844.75-1.003906.027344-.03125.050782-.066407.078126-.097657 6.152343-7.898437 15.074218-13.296874 24.820312-15.109374v-12.742188c0-1.398438.734375-2.699219 1.929688-3.421875 1.199218-.722656 2.6875-.769531 3.929687-.121094 6.925781 3.628907 14.410156 5.46875 22.257813 5.46875 7.839843 0 15.320312-1.835937 22.242187-5.460937 1.242187-.648438 2.730469-.605469 3.929687.121094 1.195313.722656 1.929688 2.023437 1.929688 3.421874v12.433594c12.636719 1.78125 23.980469 9.542969 30.21875 20.902344.304688.554688.53125.988281.746094 1.425781l.140625.285157c.203125.414062.402343.832031.59375 1.257812l.171875.398438c.160156.367187.34375.789062.515625 1.21875l.105469.273437c.511718 1.320313.953124 2.648437 1.320312 3.992187l.386719 1.503907c.105469.460937.175781.769531.242187 1.085937.058594.273438.113282.570313.167969.863282.058594.328124.117187.667968.171875 1.007812l.125.832031c.050781.359375.097656.730469.136719 1.101563l.082031.78125c.039062.410156.066406.832031.09375 1.253906l.039062.632812c.003907.003907.003907.007813.003907.011719.027343.640625.042969 1.285157.042969 1.933594v7.4375c0 2.210937-1.789063 4.003906-4 4.003906zm-113.042969-8h109.042969v-3.4375c0-.519531-.011719-1.035156-.035157-1.546875l-.035156-.550781c-.023437-.328125-.042969-.664063-.074219-1l-.050781-.457031c-.050781-.464844-.085937-.753906-.125-1.046875l-.105469-.699219c-.039062-.25-.085937-.519531-.132812-.789062l-.136719-.707032c-.050781-.253906-.109375-.492187-.164063-.730468l-.347656-1.375c-.292968-1.0625-.644531-2.128907-1.046875-3.152344l3.625-1.730469-3.714843 1.484375c-.140626-.359375-.285157-.691406-.429688-1.023438l-.132812-.304687c-.148438-.335937-.308594-.671875-.472657-1.007813l-.09375-.1875c-.199219-.390624-.382812-.75-.570312-1.097656-5.558594-10.117187-16.003907-16.664062-27.335938-17.195312-.515625.027344-1.144531-.109375-1.683593-.355469-1.695313-.769531-2.636719-2.59375-2.277344-4.414063.019531-.09375.039062-.183593.039062-.277343v-8.84375c-12.789062 4.90625-27.429687 4.90625-40.214844-.003907v8.878907c0 .015625 0 .09375.042969.289062.234375 1.09375-.003906 2.242188-.65625 3.15625-.652343.914063-1.65625 1.507813-2.769531 1.648438l-.6875.082031c-8.824219.953125-16.984375 5.515625-22.445312 12.527344-.035157.042968-.070313.085937-.109376.132812-.179687.234375-.332031.441406-.480468.648438l-.324219.445312c-.160156.222656-.320313.460938-.480469.699219l-.324218.492187c-.132813.214844-.285157.449219-.429688.6875l-.316406.527344c-.125.214844-.261719.453125-.394532.691406l-1.5 3.082032c-.003906.011718-.070312.175781-.074218.1875-.15625.367187-.304688.738281-.445313 1.117187l-.496093 1.414063c-.085938.265625-.171876.515625-.242188.765625l-.132812.46875c-.003907.011719-.050782.1875-.054688.195312-.070312.257813-.136719.511719-.203125.769531l-.117187.488282c-.097657.414062-.152344.679687-.210938.949218l-.121094.636719c-.058594.308594-.101562.582031-.144531.855469l-.09375.617188c-.042969.328124-.078125.625-.109375.921874l-.0625.578126c-.035156.359374-.050781.691406-.074219 1.027343 0 .007813-.011719.207031-.011719.21875l-.019531.265625c-.023437.523438-.039062 1.035156-.039062 1.550782zm0 0" fill="#3762cc"/><path d="m283.160156 70.699219h27.210938c2.011718 0 3.644531-1.632813 3.644531-3.644531v-20.8125c0-23.144532-18.761719-41.90625-41.90625-41.90625h-1.300781c-6.039063 0-10.933594 4.894531-10.933594 10.933593v32.144531c0 12.859376 10.425781 23.285157 23.285156 23.285157zm0 0" fill="#4671c6"/><path d="m249.0625 4.339844h-27.414062c-25.125 0-45.492188 20.367187-45.492188 45.488281v17.214844c0 2.019531 1.636719 3.65625 3.65625 3.65625h24.480469c3.777343 0 7.523437-.667969 11.058593-2.003907 6.597657-2.496093 16.4375-7.78125 22.355469-18.273437 0 0-4.777343 14.03125-8.441406 18.75-.476563.609375.003906 1.472656.773437 1.410156 16.773438-1.425781 29.941407-15.492187 29.941407-32.636719v-22.6875c0-6.03125-4.886719-10.917968-10.917969-10.917968zm0 0" fill="#4671c6"/><path d="m310.371094 74.699219h-27.210938c-15.042968 0-27.28125-12.238281-27.28125-27.285157v-32.144531c0-8.234375 6.699219-14.929687 14.929688-14.929687h1.300781c25.3125 0 45.90625 20.59375 45.90625 45.902344v20.8125c0 4.214843-3.429687 7.644531-7.644531 7.644531zm-39.5625-66.359375c-3.824219 0-6.933594 3.109375-6.933594 6.929687v32.144531c0 10.632813 8.652344 19.285157 19.285156 19.285157h26.855469v-20.457031c0-20.898438-17.003906-37.902344-37.90625-37.902344zm0 0" fill="#3762cc"/><path d="m204.296875 74.699219h-24.480469c-4.222656 0-7.660156-3.433594-7.660156-7.660157v-17.210937c0-27.289063 22.203125-49.488281 49.492188-49.488281h27.417968c8.226563 0 14.917969 6.691406 14.917969 14.917968v22.6875c0 18.933594-14.761719 35.019532-33.609375 36.621094-1.917969.164063-3.78125-.828125-4.707031-2.53125-.625-1.148437-.746094-2.472656-.394531-3.679687-2.980469 1.769531-5.90625 3.097656-8.503907 4.082031-3.976562 1.5-8.171875 2.261719-12.472656 2.261719zm28.132813-3.082031c0 .003906 0 .003906-.003907.007812.003907-.003906.003907-.003906.003907-.007812zm-52.273438-4.917969h24.136719c3.332031 0 6.578125-.585938 9.640625-1.746094 6.371094-2.410156 15.058594-7.230469 20.289062-16.5 1.019532-1.800781 3.238282-2.527344 5.121094-1.683594s2.816406 2.984375 2.152344 4.9375c-.359375 1.050781-2.707032 7.851563-5.4375 13.597657 11.566406-3.769532 19.921875-14.757813 19.921875-27.359376v-22.6875c0-3.816406-3.101563-6.917968-6.917969-6.917968h-27.414062c-22.878907 0-41.492188 18.613281-41.492188 41.488281zm0 0" fill="#3762cc"/><path d="m414.191406 343.453125c-.738281-.109375-1.453125-.25-2.144531-.414063-5.136719-1.199218-9.675781-4.214843-12.949219-8.378906l-3.289062-4.175781c-.488282-.621094-.808594-1.347656-.972656-2.109375-10.046876.890625-18.886719 5.996094-24.769532 13.546875h-.003906c-.019531.027344-.039062.058594-.0625.085937-.191406.25-.378906.5-.5625.753907-.117188.15625-.230469.3125-.34375.472656-.175781.246094-.347656.5-.519531.753906-.113281.167969-.226563.339844-.335938.515625-.164062.25-.320312.503906-.476562.757813-.113281.179687-.21875.363281-.328125.546875-.148438.253906-.296875.507812-.4375.765625-.109375.195312-.210938.390625-.3125.585937-.136719.253906-.273438.507813-.402344.765625-.101562.207031-.199219.417969-.300781.628907-.117188.25-.242188.503906-.355469.757812-.109375.25-.214844.503906-.320312.757812-.167969.402344-.328126.808594-.484376 1.21875-.105468.28125-.210937.5625-.308593.84375-.078125.226563-.148438.453126-.222657.679688-.089843.273438-.179687.546875-.261718.824219-.070313.226562-.132813.460937-.195313.6875-.078125.28125-.152343.558593-.222656.839843-.058594.234376-.113281.464844-.164063.699219-.066406.289063-.132812.578125-.1875.867188-.046874.230469-.09375.464843-.136718.695312-.054688.300781-.101563.601563-.152344.90625-.035156.226563-.070312.453125-.101562.679688-.042969.316406-.078126.640625-.113282.964843-.027344.214844-.050781.425782-.070312.640626-.03125.359374-.054688.722656-.078125 1.085937-.007813.179687-.027344.359375-.035157.542969-.023437.546875-.039062 1.097656-.039062 1.648437v7.136719h112.316406v-7.136719c0-.5625-.015625-1.121093-.042968-1.675781-.007813-.191406-.023438-.375-.035157-.566406-.023437-.363282-.046875-.726563-.078125-1.089844-.019531-.222656-.046875-.445312-.074218-.671875-.035157-.320313-.074219-.636719-.117188-.953125-.035156-.242188-.070312-.480469-.109375-.722656-.042969-.289063-.097656-.582032-.152344-.871094-.042969-.253906-.09375-.507812-.144531-.757812-.054688-.265626-.117188-.53125-.179688-.792969-.058593-.269531-.121093-.535157-.1875-.804688-.054687-.214843-.117187-.425781-.175781-.640625-.320312-1.164062-.699219-2.300781-1.128906-3.414062-.039063-.09375-.070313-.191406-.109375-.285156-.148438-.367188-.300781-.730469-.460938-1.089844-.042968-.101563-.085937-.203125-.132812-.304688-.167969-.371094-.339844-.734375-.515625-1.09375-.039063-.082031-.078125-.164062-.117187-.242187-.191407-.382813-.390626-.761719-.59375-1.136719-.019532-.035156-.035157-.066406-.054688-.097656-5.816406-10.589844-16.824219-17.894532-29.578125-18.417969l-4.800781 6.195313c-5.179688 6.6875-13.523438 10.242187-21.867188 8.992187zm0 0" fill="#a4c9ff"/><path d="m440.867188 328.265625-4.800782 6.191406c-5.1875 6.691407-13.53125 10.246094-21.875 8.996094-.738281-.109375-1.453125-.25-2.144531-.414063-5.136719-1.199218-9.675781-4.214843-12.949219-8.378906l-3.285156-4.175781c-.488281-.621094-.808594-1.34375-.972656-2.109375-1.800782.160156-3.558594.460938-5.269532.878906l2.449219 4.707032 3.046875 3.875c4.042969 5.136718 9.65625 8.757812 15.8125 10.199218.847656.199219 1.707032.363282 2.554688.492188 1.351562.199218 2.726562.300781 4.089844.300781 8.703124 0 17.152343-4.195313 22.601562-11.226563l3.097656-3.996093 3.105469-4.671875zm0 0" fill="#e0ebfc"/><path d="m394.835938 328.375c.074218.351562.1875.695312.335937 1.023438.019531.046874.035156.089843.054687.132812.066407.132812.136719.265625.210938.394531.074219.121094.15625.246094.238281.363281.046875.0625.085938.132813.132813.191407l3.289062 4.179687c3.273438 4.160156 7.808594 7.175782 12.949219 8.378906.6875.160157 1.40625.300782 2.144531.410157 8.34375 1.253906 16.6875-2.300781 21.875-8.992188l4.792969-6.183593c.066406-.332032.109375-.667969.109375-1.007813v-14.265625h-.003906v-.160156c-6.917969 3.625-14.78125 5.679687-23.125 5.679687-8.351563 0-16.214844-2.058593-23.140625-5.6875v14.460938c0 .367187.054687.726562.128906 1.078125 0 .003906.003906.003906.007813.003906zm0 0" fill="#f9cfcf"/><path d="m468.359375 248.804688c-.105469 0-.210937.011718-.316406.015624v-4.773437c0-27.890625-22.476563-50.503906-50.203125-50.503906-27.726563 0-50.203125 22.613281-50.203125 50.503906v4.773437c-.105469-.003906-.207031-.015624-.316407-.015624-8.457031 0-15.316406 6.898437-15.316406 15.40625 0 8.511718 6.859375 15.410156 15.316406 15.410156.554688 0 1.101563-.035156 1.644532-.09375 5.179687 22.34375 25.085937 38.992187 48.875 38.992187 23.789062 0 43.695312-16.648437 48.875-38.992187.542968.058594 1.089844.09375 1.644531.09375 8.457031 0 15.316406-6.898438 15.316406-15.410156 0-8.507813-6.855469-15.40625-15.316406-15.40625zm0 0" fill="#f9cfcf"/><path d="m391.492188 266.199219c-2.820313 0-5.105469-2.289063-5.105469-5.105469v-8.625c0-2.820312 2.285156-5.105469 5.105469-5.105469 2.820312 0 5.105468 2.285157 5.105468 5.105469v8.625c0 2.816406-2.285156 5.105469-5.105468 5.105469zm0 0" fill="#3762cc"/><path d="m444.496094 266.199219c-2.820313 0-5.105469-2.289063-5.105469-5.105469v-8.625c0-2.820312 2.285156-5.105469 5.105469-5.105469 2.820312 0 5.105468 2.285157 5.105468 5.105469v8.625c0 2.816406-2.285156 5.105469-5.105468 5.105469zm0 0" fill="#3762cc"/><path d="m417.992188 296.210938c-8.453126 0-15.332032-6.339844-15.332032-14.136719 0-2.207031 1.792969-4 4-4 2.207032 0 4 1.792969 4 4 0 3.382812 3.289063 6.136719 7.332032 6.136719 4.046874 0 7.335937-2.75 7.335937-6.136719 0-2.207031 1.792969-4 4-4s4 1.792969 4 4c0 7.796875-6.878906 14.136719-15.335937 14.136719zm0 0" fill="#3762cc"/><path d="m417.84375 322.523438c-24.242188 0-45.167969-15.863282-51.953125-38.957032-9.984375-.738281-17.882813-9.132812-17.882813-19.351562 0-9.4375 6.734376-17.324219 15.628907-19.054688v-1.109375c0-30.054687 24.316406-54.503906 54.207031-54.503906 29.882812 0 54.199219 24.449219 54.199219 54.503906v1.109375c8.898437 1.730469 15.632812 9.617188 15.632812 19.054688 0 10.21875-7.898437 18.613281-17.882812 19.351562-6.785157 23.09375-27.707031 38.957032-51.949219 38.957032zm-48.875-46.992188c1.839844 0 3.46875 1.265625 3.890625 3.09375 4.902344 21.136719 23.398437 35.898438 44.980469 35.898438 21.582031 0 40.078125-14.761719 44.976562-35.898438.460938-1.96875 2.328125-3.289062 4.320313-3.074219.402343.042969.808593.070313 1.21875.070313 6.242187 0 11.316406-5.117188 11.316406-11.410156 0-6.265626-5.039063-11.371094-11.246094-11.40625-.148437.007812-.316406.015624-.386719.015624-1.046874 0-2.054687-.414062-2.800781-1.144531-.765625-.753906-1.199219-1.785156-1.199219-2.855469v-4.773437c0-25.640625-20.726562-46.503906-46.199218-46.503906-25.476563 0-46.207032 20.863281-46.207032 46.503906v4.773437c0 1.074219-.429687 2.101563-1.195312 2.855469-.769531.75-1.75 1.207031-2.878906 1.140625-.066406 0-.28125-.011718-.347656-.015625-6.132813.003907-11.207032 5.121094-11.207032 11.410157 0 6.292968 5.074219 11.410156 11.3125 11.410156.414063 0 .820313-.027344 1.21875-.070313.148438-.015625.289063-.019531.433594-.019531zm0 0" fill="#3762cc"/><path d="m474.851562 375.027344h-112.316406c-2.210937 0-4-1.792969-4-4v-7.136719c0-.609375.015625-1.214844.039063-1.820313l.039062-.585937c.027344-.429687.050781-.835937.089844-1.238281l.058594-.554688c.054687-.515625.097656-.878906.144531-1.238281l.113281-.742187c.050781-.332032.105469-.667969.167969-1.003907l.148438-.773437c.0625-.320313.132812-.644532.207031-.96875l1.1875-4.144532c.089843-.261718.191406-.53125.292969-.796874.222656-.59375.402343-1.042969.589843-1.492188.160157-.386719.257813-.621094.359375-.851562.105469-.230469.21875-.472657.335938-.714844l.757812-1.527344 3.695313 1.574219-3.539063-1.863281.277344-.515626c.15625-.285156.316406-.566406.484375-.847656 0-.003906.105469-.175781.109375-.179687l.253906-.425781c.175782-.292969.351563-.570313.53125-.847657l.363282-.554687c.207031-.300782.394531-.582032.589843-.855469l.328125-.457031c.261719-.347656.460938-.625.675782-.902344.03125-.039062.058593-.078125.09375-.113281 5.898437-7.574219 14.441406-12.757813 23.777343-14.527344v-12.089844c0-1.398437.730469-2.699219 1.929688-3.421875s2.683593-.773437 3.925781-.121094c6.625 3.472657 13.785156 5.230469 21.285156 5.230469 7.496094 0 14.648438-1.753906 21.269532-5.222656 1.238281-.648437 2.726562-.601563 3.925781.125 1.199219.722656 1.929687 2.019531 1.929687 3.421875l.003906 11.789062c12.125 1.753907 22.992188 9.214844 28.980469 20.121094.289063.53125.511719.957032.722657 1.378906.003906.011719.128906.261719.132812.269532.195312.398437.382812.796875.5625 1.199218.007812.019532.082031.191407.09375.207032.234375.542968.40625.949218.570312 1.351562.011719.03125.074219.199219.085938.226563.515625 1.332031.9375 2.609375 1.289062 3.894531l.378907 1.460938c.101562.441406.167969.734374.226562 1.03125.054688.265624.109375.546874.164063.832031.054687.316406.113281.640625.167968.96875l.121094.808593c.046875.359376.089844.710938.128906 1.066407l.078126.730469c.039062.410156.0625.808593.089843 1.210937l.039063.636719c.03125.617187.046875 1.234375.046875 1.859375v7.136719c-.003907 2.210937-1.796875 4.003906-4.003907 4.003906zm-108.316406-8h104.316406v-3.136719c0-.5-.015624-1-.039062-1.496094 0-.003906 0-.011719 0-.015625l-.019531-.261718c0-.011719-.011719-.210938-.011719-.21875-.023438-.320313-.042969-.644532-.070312-.96875l-.066407-.589844c-.03125-.300782-.066406-.582032-.105469-.871094l-.097656-.648438c-.039062-.230468-.082031-.488281-.128906-.742187l-.617188-2.679687c-.28125-1.019532-.617187-2.035157-1-3.023438-.007812-.015625-.066406-.171875-.070312-.1875-.152344-.386719-.292969-.710938-.433594-1.035156l3.53125-1.90625-3.644531 1.644531c-.148437-.332031-.304687-.660156-.464844-.988281l3.476563-1.992188-3.582032 1.78125c-.167968-.339844-.34375-.671875-.523437-1.003906-5.304687-9.664062-15.273437-15.910156-26.089844-16.417969-.589843-.007812-1.140625-.113281-1.6875-.359375-1.691406-.769531-2.636719-2.597656-2.269531-4.417968.011719-.074219.03125-.148438.03125-.226563v-8.25c-12.183594 4.609375-26.089844 4.609375-38.269531-.007813v8.289063c.003906.078125.019531.152344.039062.230469.234375 1.097656 0 2.246094-.648437 3.160156-.652344.917969-1.65625 1.515625-2.773438 1.652344l-.660156.082031c-8.429688.910156-16.21875 5.265625-21.433594 11.957031-.03125.042969-.066406.085938-.101562.125-.015625.023438-.03125.042969-.042969.054688-.085937.117187-.253906.34375-.417969.570312l-.308594.425782c-.152343.214843-.304687.4375-.457031.664062l-.921875 1.460938c-.003906.003906-.105468.171874-.105468.175781l-.570313 1.019531c0 .003906-.160156.304688-.164063.308594l-1.066406 2.253906c-.21875.527344-.363281.886719-.503906 1.253906l-1.214844 4.050782c-.0625.269531-.121094.519531-.167968.773437l-.125.632813c-.046876.253906-.089844.519531-.128907.789062l-.09375.609375c-.042969.292969-.070312.574219-.101562.855469l-.058594.570312c-.035156.320313-.050781.640625-.070313.957032l-.035156.523437c-.019531.445313-.035156.9375-.035156 1.429687v3.144532zm0 0" fill="#3762cc"/><path d="m454.019531 236.507812h25.746094c1.90625 0 3.449219-1.546874 3.449219-3.449218v-19.691406c0-21.898438-17.753906-39.652344-39.652344-39.652344h-1.226562c-5.714844 0-10.347657 4.632812-10.347657 10.34375v30.417968c0 12.167969 9.863281 22.03125 22.03125 22.03125zm0 0" fill="#4671c6"/><path d="m401.097656 236.507812h-44.863281c-1.910156 0-3.460937-1.550781-3.460937-3.464843v-16.285157c0-23.773437 19.273437-43.042968 43.042968-43.042968h25.941406c5.707032 0 10.332032 4.625 10.332032 10.328125v21.46875c0 17.117187-13.875 30.996093-30.992188 30.996093zm0 0" fill="#4671c6"/><path d="m479.765625 240.507812h-25.746094c-14.355469 0-26.03125-11.679687-26.03125-26.03125v-30.417968c0-7.910156 6.4375-14.34375 14.34375-14.34375h1.230469c24.066406 0 43.648438 19.582031 43.648438 43.652344v19.691406c.003906 4.105468-3.339844 7.449218-7.445313 7.449218zm-37.433594-62.792968c-3.496093 0-6.34375 2.847656-6.34375 6.34375v30.417968c0 9.941407 8.085938 18.03125 18.03125 18.03125h25.195313v-19.140624c0-19.660157-15.992188-35.652344-35.652344-35.652344zm0 0" fill="#3762cc"/><path d="m401.097656 240.507812h-44.863281c-4.113281 0-7.460937-3.347656-7.460937-7.460937v-16.285156c0-25.941407 21.105468-47.046875 47.042968-47.046875h25.941406c7.902344 0 14.332032 6.429687 14.332032 14.332031v21.46875c0 19.292969-15.699219 34.992187-34.992188 34.992187zm-44.324218-8h44.324218c14.882813 0 26.992188-12.109374 26.992188-26.992187v-21.46875c0-3.492187-2.84375-6.332031-6.332032-6.332031h-25.941406c-21.527344 0-39.042968 17.511718-39.042968 39.042968zm0 0" fill="#3762cc"/><path d="m242.367188 238.449219h-70.511719c-3.894531 0-7.054688 3.222656-7.054688 7.199219v77.058593c0 29.511719 15.390625 56.796875 40.394531 71.609375l26.550782 15.734375c6.570312 3.894531 14.675781 3.894531 21.242187 0l26.554688-15.734375c25.003906-14.816406 40.394531-42.097656 40.394531-71.609375v-77.058593c0-3.976563-3.160156-7.199219-7.054688-7.199219zm0 0" fill="#f9cfcf"/><path d="m252.988281 410.054688 26.550781-15.734376c25.003907-14.816406 40.394532-42.101562 40.394532-71.613281v-77.058593c0-3.972657-3.15625-7.195313-7.054688-7.195313h-70.511718v174.519531c3.667968 0 7.339843-.972656 10.621093-2.917968zm0 0" fill="#f9a7a7"/><path d="m242.367188 416.964844c-4.375 0-8.753907-1.15625-12.660157-3.46875l-26.550781-15.734375c-26.125-15.484375-42.351562-44.242188-42.351562-75.054688v-77.058593c0-6.175782 4.957031-11.199219 11.050781-11.199219h141.027343c6.09375 0 11.050782 5.023437 11.050782 11.199219v77.058593c0 30.8125-16.226563 59.570313-42.355469 75.054688l-26.550781 15.734375c-3.902344 2.3125-8.28125 3.46875-12.660156 3.46875zm-70.511719-174.515625c-1.683594 0-3.050781 1.433593-3.050781 3.199219v77.058593c0 28 14.726562 54.121094 38.429687 68.167969l26.550781 15.738281c5.292969 3.136719 11.875 3.132813 17.164063 0l26.554687-15.738281c23.703125-14.046875 38.429688-40.167969 38.429688-68.167969v-77.058593c0-1.765626-1.371094-3.199219-3.050782-3.199219zm0 0" fill="#3762cc"/><path d="m156.648438 270.492188-8.339844-38.476563c-.496094-2.277344 1.53125-4.300781 3.804687-3.808594l38.480469 8.34375zm0 0" fill="#e0ebfc"/><path d="m173.621094 253.519531-16.972656 16.972657 119.867187 112.507812 13.289063-13.292969zm0 0" fill="#e0ebfc"/><path d="m173.621094 253.519531 16.972656-16.96875 112.507812 119.863281-13.296874 13.292969zm0 0" fill="#e0ebfc"/><path d="m156.648438 274.492188c-.375 0-.753907-.050782-1.125-.164063-1.40625-.414063-2.472657-1.558594-2.78125-2.988281l-8.34375-38.476563c-.523438-2.40625.207031-4.878906 1.945312-6.621093 1.742188-1.734376 4.210938-2.464844 6.617188-1.941407l38.480468 8.339844c1.429688.3125 2.574219 1.378906 2.988282 2.785156.414062 1.402344.027343 2.921875-1.007813 3.953125l-33.945313 33.941406c-.757812.757813-1.78125 1.171876-2.828124 1.171876zm-4.171876-42.113282 6.53125 30.101563 23.570313-23.574219zm0 0" fill="#3762cc"/><path d="m276.515625 387c-.984375 0-1.96875-.359375-2.738281-1.085938l-119.867188-112.507812c-.789062-.738281-1.242187-1.769531-1.261718-2.851562-.015626-1.082032.40625-2.125 1.171874-2.890626l16.972657-16.96875c1.5-1.5 4.15625-1.5 5.65625 0l116.183593 116.183594c1.5625 1.5625 1.5625 4.09375 0 5.65625l-13.289062 13.292969c-.78125.78125-1.804688 1.171875-2.828125 1.171875zm-114.117187-116.601562 114.027343 107.035156 7.722657-7.726563-110.527344-110.527343zm0 0" fill="#3762cc"/><path d="m289.804688 373.707031c-1.058594 0-2.078126-.421875-2.828126-1.171875l-116.183593-116.183594c-1.5625-1.5625-1.5625-4.09375 0-5.65625l16.96875-16.972656c.75-.75 1.769531-1.171875 2.828125-1.171875h.0625c1.082031.015625 2.113281.472657 2.855468 1.261719l112.507813 119.867188c1.476563 1.574218 1.4375 4.035156-.089844 5.5625l-13.292969 13.296874c-.75.746094-1.765624 1.167969-2.828124 1.167969zm-110.527344-120.1875 110.53125 110.53125 7.722656-7.726562-107.03125-114.027344zm0 0" fill="#3762cc"/><path d="m321.484375 360.65625-40.726563 40.730469c-1.25 1.25-3.277343 1.25-4.527343 0l-6.789063-6.789063c-1.25-1.25-1.25-3.277344 0-4.527344l40.730469-40.726562c1.25-1.25 3.277344-1.25 4.527344 0l6.785156 6.785156c1.25 1.25 1.25 3.277344 0 4.527344zm0 0" fill="#eaa97d"/><path d="m289.804688 392.335938 22.628906 22.625c6.25 6.25 16.378906 6.25 22.628906 0 6.246094-6.246094 6.246094-16.378907 0-22.625l-22.628906-22.628907zm0 0" fill="#eaa97d"/><path d="m278.492188 406.320312c-1.921876 0-3.730469-.75-5.089844-2.109374l-6.789063-6.785157c-1.359375-1.363281-2.109375-3.167969-2.109375-5.09375s.75-3.730469 2.109375-5.089843l40.730469-40.730469c2.714844-2.71875 7.460938-2.722657 10.179688 0l6.789062 6.789062c1.359375 1.359375 2.109375 3.167969 2.109375 5.089844s-.75 3.730469-2.109375 5.089844l-40.726562 40.730469c-1.363282 1.363281-3.171876 2.109374-5.09375 2.109374zm-5.65625-13.984374 5.65625 5.652343 39.597656-39.597656-5.65625-5.65625zm0 0" fill="#3762cc"/><path d="m323.746094 423.648438c-5.34375 0-10.363282-2.082032-14.140625-5.859376l-22.628907-22.628906c-1.5625-1.558594-1.5625-4.09375 0-5.652344l22.628907-22.628906c1.558593-1.5625 4.09375-1.5625 5.65625 0l22.625 22.628906c3.777343 3.773438 5.859375 8.796876 5.859375 14.140626s-2.082032 10.367187-5.859375 14.140624c-3.773438 3.777344-8.796875 5.859376-14.140625 5.859376zm-28.28125-31.3125 19.796875 19.796874c2.269531 2.265626 5.28125 3.511719 8.484375 3.511719 3.207031 0 6.21875-1.246093 8.484375-3.511719 2.269531-2.265624 3.515625-5.28125 3.515625-8.488281 0-3.203125-1.246094-6.214843-3.515625-8.484375l-19.796875-19.796875zm0 0" fill="#3762cc"/><path d="m66.183594 342.683594c-.738282-.113282-1.453125-.25-2.144532-.414063-5.136718-1.203125-9.675781-4.214843-12.949218-8.378906l-3.289063-4.175781c-.488281-.621094-.808593-1.347656-.972656-2.109375-10.046875.886719-18.886719 5.996093-24.769531 13.546875h-.003906c-.019532.027344-.039063.058594-.0625.085937-.191407.246094-.378907.5-.5625.753907-.117188.15625-.230469.3125-.34375.472656-.175782.246094-.347657.5-.519532.753906-.113281.167969-.226562.339844-.335937.511719-.164063.25-.320313.503906-.476563.757812-.113281.183594-.21875.367188-.328125.550781-.148437.253907-.296875.507813-.4375.765626-.109375.191406-.210937.390624-.3125.585937-.136719.253906-.273437.507813-.402343.765625-.101563.207031-.199219.417969-.300782.628906-.117187.25-.242187.503906-.355468.757813-.109376.25-.214844.503906-.320313.757812-.167969.402344-.328125.808594-.484375 1.21875-.105469.28125-.210938.558594-.3125.84375-.078125.226563-.148438.453125-.222656.679688-.089844.273437-.175782.546875-.261719.824219-.066406.226562-.128906.457031-.195313.6875-.078124.28125-.152343.558593-.222656.839843-.058594.234375-.113281.464844-.164062.699219-.066406.289062-.128906.578125-.1875.867188-.046875.230468-.09375.464843-.132813.695312-.054687.300781-.105469.601562-.152343.90625-.035157.226562-.070313.453125-.101563.675781-.046875.320313-.082031.644531-.117187.96875-.023438.214844-.046876.425781-.066407.640625-.035156.359375-.058593.722656-.078125 1.085938-.011718.179687-.027344.359375-.035156.542968-.023438.546876-.039062 1.09375-.039062 1.648438v7.136719h112.316406v-7.136719c0-.5625-.019532-1.121094-.042969-1.675781-.007813-.191407-.023437-.378907-.035156-.566407-.023438-.363281-.046875-.726562-.082031-1.089843-.019532-.226563-.046876-.445313-.070313-.671875-.039063-.320313-.074219-.636719-.121094-.953125-.03125-.242188-.066406-.480469-.105469-.722657-.046874-.292968-.097656-.582031-.152343-.875-.046875-.25-.09375-.503906-.144531-.753906-.058594-.265625-.117188-.53125-.179688-.792968-.0625-.269532-.121094-.539063-.191406-.804688-.054688-.214844-.117188-.425781-.175782-.640625-.320312-1.164063-.695312-2.300781-1.128906-3.417969-.035156-.09375-.070312-.1875-.109375-.28125-.144531-.367187-.300781-.730468-.457031-1.089844-.046875-.101562-.089844-.203124-.136719-.308593-.164062-.367188-.335937-.730469-.511719-1.089844-.042968-.082031-.082031-.164063-.121093-.242187-.191407-.382813-.386719-.761719-.59375-1.136719-.015625-.035157-.035157-.066407-.054688-.101563-5.816406-10.589844-16.824219-17.890625-29.574219-18.414062l-4.800781 6.195312c-5.175781 6.6875-13.523437 10.242188-21.867187 8.992188zm0 0" fill="#b9befc"/><path d="m92.863281 327.492188-4.800781 6.195312c-5.1875 6.691406-13.53125 10.246094-21.875 8.996094-.742188-.113282-1.457031-.25-2.144531-.414063-5.140625-1.203125-9.679688-4.214843-12.949219-8.378906l-3.289062-4.175781c-.488282-.621094-.808594-1.34375-.972657-2.109375-1.800781.160156-3.558593.457031-5.269531.878906l2.453125 4.707031 3.046875 3.871094c4.039062 5.140625 9.65625 8.761719 15.8125 10.203125.84375.199219 1.703125.363281 2.554688.492187 1.347656.199219 2.722656.300782 4.089843.300782 8.699219 0 17.152344-4.195313 22.601563-11.230469l3.09375-3.992187 3.105468-4.675782zm0 0" fill="#f9a7a7"/><path d="m46.828125 327.605469c.074219.351562.1875.695312.332031 1.023437.023438.046875.039063.089844.058594.132813.066406.132812.136719.265625.210938.390625.074218.125.15625.246094.238281.367187.046875.0625.085937.128907.132812.191407l3.289063 4.179687c3.273437 4.160156 7.808594 7.175781 12.949218 8.378906.6875.160157 1.40625.296875 2.144532.410157 8.34375 1.253906 16.6875-2.300782 21.875-8.992188l4.792968-6.183594c.0625-.332031.109376-.667968.109376-1.011718v-14.261719h-.003907v-.160157c-6.917969 3.625-14.78125 5.675782-23.125 5.675782-8.351562 0-16.214843-2.054688-23.140625-5.683594v14.460938c0 .367187.050782.726562.128906 1.078124.003907.003907.003907.003907.007813.003907zm0 0" fill="#f9cfcf"/><path d="m120.355469 248.035156c-.109375 0-.210938.011719-.320313.015625v-4.773437c0-27.890625-22.476562-50.503906-50.199218-50.503906-27.726563 0-50.203126 22.613281-50.203126 50.503906v4.773437c-.105468-.003906-.210937-.015625-.320312-.015625-8.457031 0-15.316406 6.898438-15.316406 15.40625 0 8.511719 6.859375 15.410156 15.316406 15.410156.558594 0 1.101562-.035156 1.644531-.09375 5.179688 22.34375 25.089844 38.992188 48.878907 38.992188 23.785156 0 43.695312-16.648438 48.875-38.992188.539062.058594 1.085937.09375 1.644531.09375 8.457031 0 15.316406-6.898437 15.316406-15.410156 0-8.507812-6.859375-15.40625-15.316406-15.40625zm0 0" fill="#f9cfcf"/><path d="m43.484375 265.429688c-2.820313 0-5.105469-2.289063-5.105469-5.109376v-8.621093c0-2.820313 2.285156-5.105469 5.105469-5.105469s5.109375 2.285156 5.109375 5.105469v8.621093c-.003906 2.820313-2.289062 5.109376-5.109375 5.109376zm0 0" fill="#3762cc"/><path d="m96.488281 265.429688c-2.816406 0-5.105469-2.289063-5.105469-5.109376v-8.621093c0-2.820313 2.289063-5.105469 5.105469-5.105469 2.820313 0 5.109375 2.285156 5.109375 5.105469v8.621093c-.003906 2.820313-2.289062 5.109376-5.109375 5.109376zm0 0" fill="#3762cc"/><path d="m69.984375 294.441406c-7.898437 0-14.332031-5.894531-14.332031-13.136718 0-1.65625 1.34375-3 3-3s3 1.34375 3 3c0 3.933593 3.738281 7.136718 8.332031 7.136718 4.597656 0 8.335937-3.203125 8.335937-7.136718 0-1.65625 1.34375-3 3-3s3 1.34375 3 3c0 7.242187-6.429687 13.136718-14.335937 13.136718zm0 0" fill="#3762cc"/><path d="m69.835938 321.753906c-24.246094 0-45.167969-15.863281-51.953126-38.957031-9.984374-.738281-17.882812-9.136719-17.882812-19.355469 0-9.433594 6.734375-17.320312 15.632812-19.054687v-1.109375c0-30.054688 24.3125-54.503906 54.203126-54.503906 29.886718 0 54.203124 24.449218 54.203124 54.503906v1.109375c8.894532 1.734375 15.632813 9.621093 15.632813 19.054687 0 10.21875-7.902344 18.617188-17.886719 19.355469-6.785156 23.09375-27.710937 38.957031-51.949218 38.957031zm-48.875-46.996094c1.839843 0 3.46875 1.269532 3.894531 3.097657 4.898437 21.132812 23.394531 35.894531 44.976562 35.894531s40.078125-14.761719 44.980469-35.894531c.457031-1.972657 2.308594-3.296875 4.320312-3.074219.398438.039062.804688.070312 1.21875.070312 6.238282 0 11.3125-5.121093 11.3125-11.410156 0-6.265625-5.035156-11.371094-11.242187-11.40625-.179687.011719-.3125.015625-.386719.015625-1.042968 0-2.042968-.40625-2.792968-1.132812-.773438-.753907-1.207032-1.789063-1.207032-2.867188v-4.773437c0-25.640625-20.726562-46.503906-46.207031-46.503906-25.472656 0-46.199219 20.863281-46.199219 46.503906v4.773437c0 1.078125-.4375 2.113281-1.210937 2.867188-.777344.753906-1.824219 1.136719-2.898438 1.128906-.058593 0-.261719-.011719-.320312-.015625-6.128907.003906-11.203125 5.121094-11.203125 11.410156 0 6.289063 5.074218 11.410156 11.316406 11.410156.410156 0 .816406-.027343 1.21875-.070312.148438-.015625.289062-.023438.429688-.023438zm0 0" fill="#3762cc"/><path d="m126.84375 374.257812h-112.316406c-2.207032 0-4-1.792968-4-4v-7.136718c0-.609375.019531-1.214844.042968-1.820313l.03125-.476562c.03125-.539063.058594-.945313.097657-1.347657l.066406-.671874c.042969-.398438.085937-.757813.136719-1.121094.027344-.21875.066406-.476563.109375-.738282.054687-.351562.109375-.679687.167969-1.007812l.140624-.742188c.078126-.371093.144532-.683593.21875-1l.175782-.75c.082031-.332031.167968-.652343.257812-.964843.0625-.234375.136719-.5.214844-.757813.089844-.304687.191406-.617187.289062-.925781l.53125-1.519531c.230469-.617188.410157-1.066406.597657-1.511719l1.089843-2.394531c.132813-.265625.277344-.535156.417969-.804688l.375-.699218c.15625-.285157.320313-.566407.484375-.847657l.363282-.609375c.179687-.289062.355468-.566406.535156-.84375l.367187-.5625c.195313-.289062.386719-.570312.582031-.847656l.269532-.371094c.3125-.429687.523437-.710937.734375-.988281 5.976562-7.667969 14.53125-12.867187 23.871093-14.640625v-12.089844c0-1.398437.730469-2.695312 1.929688-3.421875 1.195312-.722656 2.683594-.769531 3.925781-.117187 6.625 3.46875 13.785157 5.230468 21.285157 5.230468 7.496093 0 14.652343-1.757812 21.273437-5.222656 1.238281-.648437 2.726563-.605468 3.925781.121094 1.195313.722656 1.929688 2.023438 1.929688 3.421875v11.789063c12.125 1.757812 22.992187 9.214843 28.980468 20.121093.285157.523438.503907.945313.71875 1.375l.144532.292969c.183594.378906.378906.785156.5625 1.203125l.113281.253906c.210937.476563.378906.878907.542969 1.289063l.125.324218c.472656 1.21875.894531 2.496094 1.253906 3.785157l.199219.726562c.070312.285157.140625.582031.207031.882813.066406.28125.136719.582031.199219.890625.054687.265625.109375.546875.164062.832031.058594.332031.113281.648438.164063.96875l.121094.78125c.050781.378906.089843.722656.128906 1.066406l.082031.789063c.035156.375.0625.777343.089844 1.175781l.039062.613281v.027344c.027344.613281.046875 1.234375.046875 1.855469v7.136718c-.003906 2.207032-1.796875 4-4.003906 4zm-108.316406-8h104.316406v-3.136718c0-.496094-.015625-.984375-.035156-1.472656l-.035156-.558594c-.019532-.28125-.042969-.605469-.070313-.933594l-.527344-3.523438c-.050781-.242187-.101562-.46875-.15625-.691406-.0625-.285156-.113281-.503906-.167969-.726562l-.160156-.585938c-.285156-1.019531-.625-2.042968-1.003906-3.023437 0 0-.09375-.246094-.09375-.25-.128906-.324219-.269531-.648438-.40625-.964844-.007812-.015625-.121094-.265625-.128906-.28125-.140625-.324219-.289063-.640625-.449219-.957031-.003906-.011719-.101563-.207032-.105469-.21875-.167968-.335938-.34375-.671875-.523437-1-.015625-.035156-.089844-.164063-.105469-.195313-5.207031-9.480469-15.167969-15.722656-25.984375-16.238281-.496094.007812-1.003906-.085938-1.492187-.273438-1.800782-.703124-2.84375-2.585937-2.472657-4.484374.015625-.082032.03125-.164063.035157-.246094v-8.253906c-12.179688 4.617187-26.089844 4.613281-38.269532-.003907v8.289063c0 .082031.023438.167968.039063.25.230469 1.09375-.007813 2.238281-.65625 3.148437-.652344.914063-1.652344 1.507813-2.769531 1.644531l-.65625.082032c-8.429688.910156-16.21875 5.269531-21.433594 11.960937-.023438.027344-.042969.054688-.066406.082031-.1875.246094-.339844.453126-.492188.664063l-.292969.402344c-.171875.242187-.320312.460937-.472656.6875l-2.21875 3.875c0 .003906-.082031.179687-.085937.183593l-.53125 1.179688c-.210938.515625-.359376.875-.496094 1.242188l-.476563 1.363281c-.078125.238281-.15625.472656-.226562.714843l-.167969.601563c-.074219.273437-.140625.515625-.207031.757813l-.652344 3.386718c-.042969.324219-.074219.605469-.105469.886719l-.058594.570313c-.03125.324218-.050781.640624-.070312.960937 0 .015625-.015625.210937-.015625.230469l-.015625.246094c-.023438.492187-.035156.984374-.035156 1.476562zm0 0" fill="#3762cc"/><path d="m110.878906 179.066406h-8.5625c-6.773437 0-12.640625 4.035156-15.570312 9.9375-.457032.921875-1.691406.941406-2.183594.039063-2.710938-5.007813-7.800781-8.46875-13.710938-8.769531-36.09375-1.035157-57.617187-9.800782-64.460937-13.074219-1.113281-.535157-2.390625.308593-2.390625 1.574219v35.265624c0 12.972657 10.253906 23.488282 22.902344 23.488282h33.21875c9.757812 0 18.277344-5.410156 22.886718-13.460938.570313-.992187 1.984376-.726562 2.269532.394532 1.746094 6.878906 7.71875 11.949218 14.824218 11.949218h25.671876c3.632812 0 6.585937-3.097656 6.585937-6.914062v-17.878906c-.003906-12.457032-9.621094-22.550782-21.480469-22.550782zm0 0" fill="#4671c6"/><path d="m60.421875 231.523438h-33.21875c-14.832031 0-26.898437-12.332032-26.898437-27.488282v-35.265625c0-1.992187 1-3.808593 2.671874-4.863281 1.648438-1.042969 3.683594-1.160156 5.445313-.316406 7.273437 3.476562 27.953125 11.679687 62.847656 12.679687 5.75.296875 10.929688 2.898438 14.570313 7.15625 4.042968-5.242187 10.15625-8.363281 16.785156-8.363281h8.558594c14.046875 0 25.476562 11.910156 25.476562 26.550781v17.878907c0 6.019531-4.75 10.914062-10.585937 10.914062h-25.675781c-6.984376 0-13.28125-3.898438-16.6875-9.933594-5.746094 6.917969-14.273438 11.050782-23.289063 11.050782zm-52.121094-59.21875v31.726562c0 10.75 8.480469 19.492188 18.902344 19.492188h33.21875c7.933594 0 15.371094-4.386719 19.414063-11.449219 1.0625-1.855469 3.105468-2.875 5.210937-2.582031 2.140625.296874 3.871094 1.859374 4.40625 3.980468 1.335937 5.257813 5.835937 8.929688 10.945313 8.929688h25.671874c1.425782 0 2.585938-1.304688 2.585938-2.914063v-17.878906c0-10.226563-7.84375-18.546875-17.476562-18.546875h-8.558594c-5.035156 0-9.628906 2.957031-11.988282 7.710938-.878906 1.773437-2.640624 2.894531-4.59375 2.929687-1.96875-.007813-3.75-1.023437-4.691406-2.757813-2.144531-3.960937-6.035156-6.460937-10.402344-6.683593-32.039062-.914063-52.867187-7.804688-62.644531-11.957031zm73.402344 43.132812v.007812s0-.003906 0-.007812zm0 0" fill="#3762cc"/><path d="m467.453125 236.507812c.367187 2.460938.589844 4.972657.589844 7.539063v4.773437c.105469-.003906.210937-.015624.320312-.015624 3.964844 0 7.566407 1.53125 10.289063 4.015624v-16.3125zm0 0" fill="#4671c6"/><path d="m478.648438 256.824219c-.980469 0-1.949219-.363281-2.703126-1.050781-2.089843-1.914063-4.785156-2.96875-7.585937-2.96875l-.242187.015624c-1.027344.0625-2.109376-.390624-2.878907-1.144531-.765625-.75-1.195312-1.78125-1.195312-2.855469v-4.769531c0-2.203125-.179688-4.480469-.550781-6.953125-.167969-1.152344.167968-2.320312.929687-3.203125.761719-.882812 1.867187-1.386719 3.03125-1.386719h11.195313c2.210937 0 4 1.789063 4 4v16.316407c0 1.585937-.9375 3.023437-2.386719 3.660156-.519531.226563-1.066407.339844-1.613281.339844zm-6.605469-11.664063c.886719.175782 1.757812.410156 2.605469.707032v-5.359376h-2.726563c.082031 1.203126.125 2.378907.125 3.542969v1.109375zm0 0" fill="#3762cc"/><path d="m357.339844 236.507812v16.035157c2.679687-2.324219 6.164062-3.738281 9.980468-3.738281.109376 0 .210938.011718.320313.015624v-4.773437c0-2.566406.226563-5.078125.59375-7.539063zm0 0" fill="#4671c6"/><path d="m357.339844 256.542969c-.5625 0-1.128906-.117188-1.660156-.359375-1.425782-.652344-2.339844-2.074219-2.339844-3.640625v-16.035157c0-2.210937 1.789062-4 4-4h10.894531c1.164063 0 2.273437.503907 3.03125 1.386719.761719.882813 1.097656 2.054688.925781 3.207031-.375 2.476563-.550781 4.75-.550781 6.949219v4.769531c0 1.074219-.433594 2.105469-1.199219 2.855469-.765625.753907-1.75 1.207031-2.875 1.144531-.070312 0-.28125-.011718-.351562-.015624-2.585938 0-5.203125.980468-7.253906 2.761718-.746094.644532-1.679688.976563-2.621094.976563zm4-16.035157v5.257813c.753906-.25 1.519531-.453125 2.296875-.605469v-1.113281c0-1.164063.042969-2.339844.128906-3.539063zm0 0" fill="#3762cc"/><path d="m296.460938 70.699219c.597656 3.179687.9375 6.453125.9375 9.808593v4.972657c.113281-.003907.222656-.015625.332031-.015625 4.132812 0 7.886719 1.59375 10.722656 4.1875v-18.953125zm0 0" fill="#4671c6"/><path d="m308.453125 93.648438c-.980469 0-1.945313-.359376-2.699219-1.046876-2.210937-2.023437-5.0625-3.136718-8.023437-3.136718-.015625.007812-.183594.015625-.332031.015625-1.046876 0-2.050782-.414063-2.800782-1.144531-.765625-.753907-1.199218-1.78125-1.199218-2.855469v-4.972657c0-2.945312-.289063-5.996093-.871094-9.066406-.21875-1.171875.09375-2.378906.855468-3.292968.757813-.917969 1.886719-1.445313 3.078126-1.445313h11.992187c2.207031 0 4 1.789063 4 4v18.949219c0 1.585937-.9375 3.023437-2.386719 3.660156-.519531.226562-1.070312.335938-1.613281.335938zm-7.054687-11.84375c1.042968.199218 2.0625.476562 3.054687.835937v-7.941406h-3.367187c.207031 1.957031.3125 3.902343.3125 5.808593zm0 0" fill="#3762cc"/><path d="m182.035156 70.699219v18.664062c2.792969-2.421875 6.425782-3.898437 10.402344-3.898437.113281 0 .21875.011718.332031.015625v-4.972657c0-3.355468.335938-6.628906.933594-9.808593zm0 0" fill="#4671c6"/><path d="m182.035156 93.359375c-.5625 0-1.128906-.117187-1.664062-.363281-1.421875-.648438-2.335938-2.070313-2.335938-3.636719v-18.660156c0-2.210938 1.789063-4 4-4h11.671875c1.1875 0 2.316407.527343 3.078125 1.445312.757813.914063 1.070313 2.125.851563 3.292969-.574219 3.058594-.867188 6.109375-.867188 9.066406v4.972656c0 1.074219-.429687 2.097657-1.199219 2.851563-.765624.753906-1.867187 1.15625-2.871093 1.148437-.074219 0-.296875-.011718-.371094-.019531-2.738281.003907-5.503906 1.039063-7.679687 2.921875-.738282.648438-1.671876.980469-2.613282.980469zm4-18.660156v7.832031c.890625-.308594 1.804688-.546875 2.734375-.722656v-1.300782c0-1.910156.105469-3.855468.308594-5.808593zm0 0" fill="#3762cc"/><path d="m126.074219 226.40625h-8.921875c1.867187 5.277344 2.886718 10.953125 2.886718 16.875v4.769531c.105469 0 .207032-.015625.316407-.015625 3.964843 0 7.570312 1.53125 10.289062 4.019532v-26.375c0-.398438-.027343-.785157-.058593-1.171876-1.183594 1.167969-2.761719 1.898438-4.511719 1.898438zm0 0" fill="#4671c6"/><path d="m130.640625 256.050781c-.980469 0-1.945313-.359375-2.699219-1.046875-2.09375-1.914062-4.789062-2.96875-7.589844-2.96875l-.242187.011719c-1.09375.050781-2.105469-.390625-2.875-1.144531-.765625-.75-1.199219-1.78125-1.199219-2.851563v-4.773437c0-5.320313-.894531-10.550782-2.65625-15.542969-.429687-1.222656-.242187-2.582031.507813-3.640625s1.964843-1.691406 3.265625-1.691406h8.917968c.789063 0 1.359376-.398438 1.699219-.738282 1.105469-1.097656 2.746094-1.453124 4.203125-.910156 1.460938.539063 2.472656 1.875 2.597656 3.429688.042969.492187.074219.988281.074219 1.492187v26.375c0 1.585938-.9375 3.023438-2.386719 3.660157-.523437.230468-1.070312.339843-1.617187.339843zm-6.601563-11.660156c.882813.171875 1.753907.410156 2.605469.707031v-14.707031c-.191406.007813-.378906.015625-.570312.015625h-3.5625c1.015625 4.199219 1.527343 8.507812 1.527343 12.875zm0 0" fill="#3762cc"/></svg>