<svg height="487pt" viewBox="-9 0 487 487.28" width="487pt" xmlns="http://www.w3.org/2000/svg"><path d="m175.765625 377.949219c-1.554687-.234375-3.0625-.527344-4.511719-.871094-10.816406-2.53125-20.375-8.875-27.265625-17.636719l-6.921875-8.796875c-1.027344-1.304687-1.703125-2.832031-2.046875-4.441406-21.152343 1.875-39.757812 12.628906-52.144531 28.523437h-.007812c-.046876.0625-.089844.125-.136719.183594-.40625.523438-.796875 1.054688-1.1875 1.585938-.242188.332031-.484375.660156-.722657.996094-.367187.523437-.730468 1.054687-1.085937 1.585937-.242187.359375-.476563.71875-.710937 1.078125-.339844.53125-.675782 1.058594-1.003907 1.597656-.234375.382813-.460937.769532-.691406 1.15625-.308594.535156-.621094 1.066406-.921875 1.609375-.222656.40625-.441406.820313-.660156 1.230469-.28125.535156-.566406 1.070312-.839844 1.613281-.214844.4375-.421875.878907-.628906 1.324219-.253906.53125-.511719 1.058594-.753906 1.597656-.234376.523438-.449219 1.0625-.671876 1.59375-.359374.847656-.699218 1.707032-1.023437 2.570313-.222656.589843-.449219 1.175781-.65625 1.773437-.164063.472656-.3125.953125-.464844 1.425782-.1875.578124-.378906 1.152343-.550781 1.738281-.144531.480469-.273438.96875-.410156 1.453125-.160156.589844-.320313 1.175781-.46875 1.769531-.125.488281-.234375.980469-.347656 1.46875-.140626.605469-.273438 1.214844-.398438 1.824219-.097656.484375-.191406.972656-.277344 1.460937-.117187.632813-.222656 1.269531-.320312 1.90625-.074219.476563-.148438.949219-.214844 1.429688-.09375.675781-.167969 1.351562-.242188 2.03125-.046874.453125-.101562.898437-.144531 1.351562-.066406.757813-.117187 1.519531-.164062 2.28125-.023438.382813-.054688.761719-.070313 1.148438-.054687 1.148437-.082031 2.304687-.082031 3.464843v15.027344h236.453125v-15.027344c0-1.183593-.03125-2.355468-.085938-3.527343-.019531-.398438-.054687-.792969-.078124-1.1875-.046876-.769531-.097657-1.53125-.167969-2.292969-.042969-.476562-.097657-.945312-.152344-1.417969-.074219-.671875-.15625-1.339843-.246094-2.007812-.070312-.507813-.144531-1.015625-.226562-1.519531-.101563-.617188-.207031-1.230469-.320313-1.839844-.097656-.53125-.199218-1.0625-.308594-1.589844-.113281-.5625-.242187-1.117188-.371093-1.671875-.132813-.5625-.257813-1.128906-.402344-1.6875-.117187-.453125-.246094-.902344-.371094-1.351563-.675781-2.449218-1.46875-4.847656-2.378906-7.191406-.074219-.199218-.148437-.394531-.226563-.589844-.308593-.777343-.636718-1.542968-.96875-2.300781-.09375-.214843-.183593-.429687-.277343-.644531-.347657-.773438-.710938-1.539062-1.082031-2.296875-.085938-.171875-.167969-.339844-.253907-.507813-.402343-.804687-.816406-1.605468-1.246093-2.390624-.035157-.070313-.078126-.140626-.113282-.210938-12.246094-22.296875-35.417968-37.667969-62.265625-38.769531l-10.105469 13.039062c-10.917968 14.082031-28.488281 21.566407-46.054687 18.929688zm0 0" fill="#f9a7a7"/><path d="m231.929688 345.972656-10.105469 13.042969c-10.921875 14.089844-28.488281 21.570313-46.054688 18.933594-1.558593-.234375-3.0625-.527344-4.515625-.867188-10.816406-2.53125-20.371094-8.878906-27.265625-17.636719l-6.917969-8.800781c-1.027343-1.304687-1.707031-2.832031-2.050781-4.4375-3.789062.335938-7.488281.96875-11.089843 1.847657l5.15625 9.910156 6.417968 8.15625c8.503906 10.8125 20.328125 18.441406 33.289063 21.476562 1.78125.414063 3.589843.761719 5.375 1.03125 2.839843.425782 5.738281.640625 8.609375.640625 18.320312 0 36.109375-8.835937 47.585937-23.640625l6.515625-8.410156 6.539063-9.839844zm0 0" fill="#e0ebfc"/><path d="m135.015625 346.207031c.160156.742188.398437 1.464844.703125 2.160157.039062.089843.078125.183593.121094.273437.132812.285156.28125.558594.4375.828125.15625.261719.328125.519531.507812.769531.09375.136719.179688.277344.28125.410157l6.921875 8.796874c6.890625 8.761719 16.449219 15.105469 27.265625 17.640626 1.449219.339843 2.957032.632812 4.511719.867187 17.566406 2.632813 35.136719-4.847656 46.054687-18.9375l10.085938-13.011719c.140625-.699218.230469-1.40625.230469-2.125v-30.03125s0 0-.003907.003906v-.339843c-14.570312 7.628906-31.121093 11.953125-48.683593 11.953125-17.578125 0-34.140625-4.332032-48.71875-11.972656v30.445312c0 .769531.113281 1.527344.273437 2.273438.003906-.003907.007813-.003907.011719-.003907zm0 0" fill="#f9cfcf"/><path d="m289.804688 178.691406c-.226563 0-.441407.03125-.667969.035156v-10.046874c0-58.722657-47.316407-106.324219-105.6875-106.324219-58.371094 0-105.6875 47.605469-105.6875 106.324219v10.046874c-.222657-.003906-.441407-.035156-.667969-.035156-17.808594 0-32.242188 14.523438-32.242188 32.4375 0 17.914063 14.433594 32.4375 32.242188 32.4375 1.171875 0 2.320312-.070312 3.460938-.191406 10.90625 47.039062 52.816406 82.089844 102.894531 82.089844s91.992187-35.050782 102.898437-82.089844c1.136719.121094 2.289063.191406 3.457032.191406 17.808593 0 32.246093-14.523437 32.246093-32.4375 0-17.914062-14.4375-32.4375-32.246093-32.4375zm0 0" fill="#f9cfcf"/><g fill="#3762cc"><path d="m127.976562 215.308594c-5.933593 0-10.746093-4.8125-10.746093-10.75v-18.148438c0-5.9375 4.8125-10.75 10.746093-10.75 5.9375 0 10.75 4.8125 10.75 10.75v18.148438c0 5.9375-4.8125 10.75-10.75 10.75zm0 0"/><path d="m239.5625 215.308594c-5.933594 0-10.746094-4.8125-10.746094-10.75v-18.148438c0-5.9375 4.8125-10.75 10.746094-10.75 5.9375 0 10.75 4.8125 10.75 10.75v18.148438c0 5.9375-4.8125 10.75-10.75 10.75zm0 0"/><path d="m183.773438 274.070312c-15.363282 0-27.863282-11.363281-27.863282-25.335937 0-2.207031 1.792969-4 4-4 2.210938 0 4 1.792969 4 4 0 9.5625 8.910156 17.335937 19.863282 17.335937 10.949218 0 19.859374-7.777343 19.859374-17.335937 0-2.207031 1.792969-4 4-4 2.207032 0 4 1.792969 4 4 0 13.972656-12.5 25.335937-27.859374 25.335937zm0 0"/><path d="m183.449219 329.464844c-50.125 0-93.230469-33.503906-105.980469-81.898438-.125 0-.25 0-.375 0-19.984375 0-36.242188-16.34375-36.242188-36.4375 0-18.960937 14.480469-34.585937 32.910157-36.285156v-6.164062c0-60.832032 49.207031-110.324219 109.6875-110.324219 60.484375 0 109.6875 49.492187 109.6875 110.324219v6.164062c18.429687 1.699219 32.914062 17.324219 32.914062 36.285156 0 20.21875-16.453125 36.5625-36.621093 36.4375-12.75 48.394532-55.855469 81.898438-105.980469 81.898438zm-102.890625-90.089844c1.839844 0 3.46875 1.265625 3.894531 3.09375 10.78125 46.511719 51.492187 78.992188 99 78.992188 47.503906 0 88.214844-32.480469 99-78.992188.457031-1.96875 2.3125-3.289062 4.324219-3.074219 1.070312.117188 2.0625.171875 3.03125.171875 15.574218 0 28.246094-12.757812 28.246094-28.4375 0-15.671875-12.65625-28.421875-28.210938-28.4375-.28125.019532-.457031.027344-.632812.03125-1.101563.015625-2.105469-.394531-2.871094-1.144531-.769532-.753906-1.199219-1.78125-1.199219-2.851563v-10.046874c0-56.421876-45.617187-102.324219-101.6875-102.324219s-101.691406 45.902343-101.691406 102.324219v10.046874c0 1.074219-.429688 2.097657-1.195313 2.851563-.765625.75-1.773437 1.199219-2.875 1.144531-.175781 0-.351562-.011718-.53125-.023437-.003906 0-.007812 0-.011718 0-15.632813 0-28.296876 12.753906-28.296876 28.429687 0 15.679688 12.667969 28.4375 28.242188 28.4375.972656 0 1.964844-.054687 3.035156-.167968.144532-.015626.285156-.023438.429688-.023438zm0 0"/><path d="m303.46875 440h-236.453125c-2.207031 0-4-1.792969-4-4v-15.023438c0-1.222656.03125-2.4375.085937-3.648437l.078126-1.210937c.046874-.796876.101562-1.597657.171874-2.394532.03125-.355468.070313-.707031.109376-1.058594l.042968-.367187c.074219-.710937.15625-1.425781.253906-2.140625.066407-.5.144532-.992188.21875-1.480469.109376-.695312.21875-1.367187.339844-2.03125.09375-.515625.195313-1.027343.296875-1.539062.128907-.640625.269531-1.28125.417969-1.917969.117188-.519531.238281-1.039062.367188-1.550781.15625-.621094.324218-1.242188.492187-1.859375l.097656-.351563c.109375-.394531.21875-.789062.332031-1.175781.164063-.546875.335938-1.085938.515626-1.621094l.199218-.621094c.117188-.367187.234375-.734374.359375-1.101562.175781-.5.363281-1 .550781-1.496094l.140626-.367187c.34375-.914063.699218-1.816407 1.074218-2.707031l.179688-.433594c.171875-.417969.347656-.835938.53125-1.25.199218-.445313.40625-.875.613281-1.308594l.320313-.679688c.171874-.363281.34375-.726562.523437-1.089843.265625-.527344.542969-1.054688.824219-1.582031l.214844-.402344c.179687-.335938.355468-.675782.542968-1.007813.316406-.566406.640625-1.128906.96875-1.6875.242188-.414062.480469-.820312.726563-1.222656.34375-.5625.699219-1.125 1.058593-1.683594.246094-.382812.5-.761719.75-1.136719.375-.558593.757813-1.121093 1.148438-1.671874l.753906-1.042969c.414063-.5625.828125-1.121094 1.253906-1.671875l.128907-.175782c.058593-.074218.117187-.144531.175781-.210937 12.523438-15.964844 30.933594-26.574219 50.863281-29.378906v-29.203125c0-1.398438.730469-2.699219 1.929688-3.421875 1.199219-.722657 2.6875-.769531 3.925781-.121094 14.582031 7.640625 30.347656 11.515625 46.859375 11.515625 16.503906 0 32.257813-3.871094 46.832031-11.5 1.242188-.652344 2.730469-.601562 3.925782.121094 1.199218.722656 1.929687 2.023437 1.929687 3.421875v28.742187c25.671875 2.421875 49 17.691406 61.5625 40.566406 0 .003907.117187.214844.121094.21875.453125.832032.890625 1.671876 1.3125 2.519532l.253906.511718c.402344.824219.785156 1.628907 1.148437 2.445313l.296876.675781c.351562.800782.695312 1.609375 1.019531 2.425782l.238281.613281c.957031 2.46875 1.796875 5.015625 2.507812 7.585937l.105469.378906c.097657.347657.195313.691407.285157 1.042969.121093.472657.230468.953125.34375 1.433594l.078124.34375c.136719.585937.269532 1.171875.394532 1.761719.117187.558594.21875 1.117187.324218 1.675781.121094.648437.230469 1.289063.335938 1.9375.082031.535156.164062 1.066406.238281 1.601563.097657.699218.179688 1.40625.261719 2.113281l.035156.304687c.042969.394532.085938.789063.121094 1.1875.078125.800782.132812 1.609375.179688 2.417969l.078124 1.246094c.058594 1.230469.089844 2.464843.089844 3.710937v15.023438c-.003906 2.214844-1.792968 4.003906-4.003906 4.003906zm-232.453125-8h228.453125v-11.023438c0-1.121093-.03125-2.234374-.082031-3.34375l-.070313-1.125c-.042968-.730468-.09375-1.453124-.160156-2.171874l-.144531-1.351563c-.070313-.625-.144531-1.261719-.234375-1.890625-.066406-.488281-.140625-.96875-.214844-1.449219-.09375-.582031-.195312-1.164062-.300781-1.746093-.089844-.5-.1875-1-.289063-1.503907-.109375-.527343-.230468-1.050781-.351562-1.578125l-.085938-.355468c-.09375-.417969-.1875-.832032-.296875-1.242188-.074219-.289062-.152343-.578125-.234375-.863281l-.117187-.414063c-.636719-2.316406-1.394531-4.605468-2.25-6.8125l-.210938-.558594c-.292969-.730468-.605469-1.457031-.917969-2.179687l-.265624-.609375c-.328126-.730469-.671876-1.457031-1.023438-2.175781l-.234375-.46875c-.382813-.773438-.777344-1.527344-1.183594-2.273438l3.398438-2.125-3.507813 1.925781c-11.835937-21.550781-34.289062-35.589843-58.652344-36.6875-.59375.03125-1.207031-.09375-1.777343-.355468-1.6875-.769532-2.632813-2.585938-2.273438-4.40625.105469-.519532.15625-.957032.15625-1.34375v-23.980469c-13.988281 6.273437-29.308593 9.570313-44.691406 9.570313-15.390625 0-30.722656-3.300782-44.714844-9.582032v24.054688c0 .398437.054688.851562.179688 1.425781.234375 1.097656-.003907 2.242187-.65625 3.15625-.652344.914063-1.65625 1.511719-2.769531 1.648437l-1.386719.171876c-18.859375 2.03125-36.359375 11.816406-48.070313 26.847656-.035156.042968-.074218.089844-.109375.136718l-.023437.027344c-.386719.5-.757813 1.007813-1.125 1.511719l-.679688.933594c-.359375.503906-.699218 1.003906-1.035156 1.507812-.234375.34375-.457031.683594-.679688 1.027344-.320312.496094-.636718 1-.945312 1.507813-.222656.363281-.441406.730468-.65625 1.097656-.292969.5-.585938 1.003906-.871094 1.519531l-.628906 1.171875c-.304688.578125-.554688 1.042969-.789062 1.515625-.15625.3125-.300782.621094-.445313.925781l-.34375.726563c-.179687.371093-.359375.746093-.527344 1.125-.152343.339843-.296875.691406-.445312 1.042969l-.1875.460937c-.335938.800781-.660157 1.613281-.96875 2.429687l-.140625.378907c-.164063.429687-.328125.863281-.476563 1.296875-.105469.304687-.203125.605468-.300781.910156l-.210938.664062c-.15625.46875-.308593.945313-.453124 1.421876-.097657.335937-.191407.675781-.289063 1.019531l-.097656.359375c-.152344.550781-.304688 1.109375-.445313 1.667968-.117187.464844-.222656.925782-.332031 1.390626-.128906.574218-.253906 1.152343-.375 1.730468-.09375.457032-.179687.917969-.265625 1.378906-.109375.601563-.207031 1.203126-.300781 1.808594-.074219.464844-.144531.90625-.203125 1.351563-.085938.636719-.160156 1.277343-.230469 1.917969l-.136719 1.285156c-.0625.714844-.109375 1.4375-.152344 2.160156l-.070312 1.089844c-.046875 1.085937-.078125 2.183594-.078125 3.285156zm0 0"/></g><path d="m200.550781 311.238281h-25.199219c-5.964843 0-10.800781-4.835937-10.800781-10.800781v-3.597656c0-5.964844 4.835938-10.800782 10.800781-10.800782h25.199219c5.964844 0 10.800781 4.835938 10.800781 10.800782v3.597656c0 5.964844-4.835937 10.800781-10.800781 10.800781zm0 0" fill="#ffea92"/><path d="m308.894531 282.4375c0 4.960938-4.039062 9-9 9h-90c.917969 1.589844 1.457031 3.429688 1.457031 5.402344v3.597656c0 1.96875-.539062 3.808594-1.457031 5.402344h90c12.902344 0 23.398438-10.5 23.398438-23.402344v-17.660156h-14.398438zm0 0" fill="#f9a7a7"/><path d="m251.714844 4h-136.527344c-44.8125 0-81.136719 37.980469-81.136719 84.828125v68.011719c.421875-.03125.839844-.066406 1.269531-.066406h19.015626v-67.945313c0-35.082031 27.296874-63.625 60.851562-63.625h136.527344c33.554687 0 60.851562 28.542969 60.851562 63.625v67.945313h20.285156v-67.941407c0-46.851562-36.324218-84.832031-81.136718-84.832031zm0 0" fill="#6bdddd"/><path d="m34.085938 160.835938c-1.007813 0-1.996094-.378907-2.738282-1.066407-.816406-.757812-1.296875-1.820312-1.296875-2.929687v-68.007813c0-48.980469 38.191407-88.832031 85.136719-88.832031h136.527344c46.945312 0 85.136718 39.851562 85.136718 88.832031v67.945313c0 2.207031-1.792968 4-4 4h-20.285156c-2.207031 0-4-1.792969-4-4v-67.945313c0-32.875-25.503906-59.625-56.851562-59.625h-136.527344c-31.347656 0-56.851562 26.75-56.851562 59.625v67.945313c0 2.207031-1.792969 4-4 4h-19.015626c-.316406 0-.625.023437-.9375.046875-.097656.011719-.199218.011719-.296874.011719zm282.480468-8.058594h12.285156v-63.945313c0-44.570312-34.601562-80.832031-77.136718-80.832031h-136.527344c-42.535156 0-77.136719 36.261719-77.136719 80.832031v63.945313h12.285157v-63.945313c0-37.289062 29.09375-67.625 64.851562-67.625h136.527344c35.757812 0 64.851562 30.335938 64.851562 67.625zm0 0" fill="#3762cc"/><path d="m258.734375 148.863281h52.46875c4.003906 0 7.246094-3.246093 7.246094-7.246093v-43.460938c0-46.035156-37.320313-83.355469-83.355469-83.355469h-.929688c-12.011718 0-21.746093 9.734375-21.746093 21.746094v66.003906c.003906 25.578125 20.738281 46.3125 46.316406 46.3125zm0 0" fill="#4671c6"/><path d="m191.242188 14.800781h-53.695313c-49.207031 0-89.097656 41.144531-89.097656 91.902344v34.769531c0 4.082032 3.207031 7.390625 7.167969 7.390625h47.945312c7.398438 0 14.730469-1.351562 21.652344-4.050781 12.921875-5.042969 32.195312-15.71875 43.789062-36.917969 0 0-9.363281 28.347657-16.539062 37.882813-.925782 1.234375.007812 2.980468 1.515625 2.847656 32.851562-2.882812 58.644531-31.300781 58.644531-65.929688v-45.835937c0-12.183594-9.574219-22.058594-21.382812-22.058594zm0 0" fill="#4671c6"/><path d="m311.203125 152.863281h-52.46875c-27.746094 0-50.3125-22.570312-50.3125-50.3125v-66.003906c0-14.195313 11.546875-25.746094 25.742187-25.746094h.933594c48.167969 0 87.355469 39.1875 87.355469 87.355469v43.460938c-.003906 6.199218-5.050781 11.246093-11.25 11.246093zm-77.039063-134.0625c-9.785156 0-17.742187 7.960938-17.742187 17.746094v66.003906c0 23.332031 18.980469 42.316407 42.3125 42.316407h52.46875c1.789063 0 3.246094-1.460938 3.246094-3.25v-43.460938c0-43.753906-35.597657-79.355469-79.355469-79.355469zm0 0" fill="#3762cc"/><path d="m103.5625 152.863281h-47.945312c-6.160157 0-11.167969-5.109375-11.167969-11.390625v-34.769531c0-52.882813 41.765625-95.902344 93.097656-95.902344h53.695313c13.996093 0 25.382812 11.6875 25.382812 26.054688v45.839843c0 36.140626-27.363281 66.851563-62.296875 69.914063-2.257813.191406-4.40625-.957031-5.503906-2.929687-1.109375-2-.933594-4.476563.445312-6.308594 2.136719-2.839844 4.527344-7.585938 6.792969-12.738282-9.792969 8.886719-20.589844 14.46875-29.390625 17.90625-7.359375 2.867188-15.132813 4.324219-23.109375 4.324219zm33.984375-134.0625c-46.921875 0-85.097656 39.429688-85.097656 87.902344v34.769531c0 1.871094 1.421875 3.390625 3.167969 3.390625h47.945312c6.976562 0 13.773438-1.269531 20.199219-3.777343 13.066406-5.101563 30.914062-15.332032 41.730469-35.113282.992187-1.816406 3.207031-2.570312 5.101562-1.75 1.898438.824219 2.855469 2.960938 2.207031 4.921875-.34375 1.046875-7.609375 22.929688-14.457031 34.882813 28.550781-4.910156 50.28125-30.953125 50.28125-61.332032v-45.839843c0-9.957031-7.800781-18.054688-17.382812-18.054688zm0 0" fill="#3762cc"/><path d="m299.894531 309.839844h-90c-1.429687 0-2.75-.765625-3.464843-2.003906-.714844-1.238282-.714844-2.765626.003906-4 .609375-1.054688.917968-2.195313.917968-3.398438v-3.597656c0-1.203125-.308593-2.347656-.917968-3.398438-.71875-1.238281-.71875-2.761718-.003906-4 .710937-1.242187 2.035156-2.003906 3.464843-2.003906h90c2.753907 0 5-2.242188 5-5v-17.660156c0-2.210938 1.792969-4 4-4h14.398438c2.210937 0 4 1.789062 4 4v17.660156c0 15.109375-12.289063 27.402344-27.398438 27.402344zm-84.609375-8h84.609375c10.699219 0 19.398438-8.707032 19.398438-19.402344v-13.660156h-6.398438v13.660156c0 7.167969-5.832031 13-13 13h-84.609375c.042969.464844.066406.933594.066406 1.402344v3.597656c0 .46875-.023437.9375-.066406 1.402344zm0 0" fill="#3762cc"/><path d="m200.550781 315.238281h-25.199219c-8.160156 0-14.800781-6.640625-14.800781-14.800781v-3.597656c0-8.160156 6.640625-14.800782 14.800781-14.800782h25.199219c8.160157 0 14.800781 6.640626 14.800781 14.800782v3.597656c0 8.160156-6.640624 14.800781-14.800781 14.800781zm-25.199219-25.199219c-3.75 0-6.800781 3.050782-6.800781 6.800782v3.597656c0 3.75 3.050781 6.800781 6.800781 6.800781h25.199219c3.75 0 6.800781-3.050781 6.800781-6.800781v-3.597656c0-3.75-3.050781-6.800782-6.800781-6.800782zm0 0" fill="#3762cc"/><path d="m461.1875 375.503906c0-25.078125-20.054688-45.460937-44.996094-46.023437v-.023438h-126.628906v.023438c-24.941406.5625-44.992188 20.945312-44.992188 46.023437l-4.1875 87.144532c-.539062 11.230468 8.417969 20.632812 19.660157 20.632812h.007812c6.359375 0 12.324219-3.070312 16.019531-8.246094l38.195313-53.488281h77.222656l38.195313 53.488281c3.695312 5.171875 9.664062 8.246094 16.019531 8.246094h.007813c11.242187 0 20.203124-9.402344 19.664062-20.632812zm0 0" fill="#4671c6"/><path d="m336.660156 375.5c0 25.429688-20.613281 46.046875-46.042968 46.046875-25.433594 0-46.046876-20.617187-46.046876-46.046875s20.613282-46.046875 46.046876-46.046875c25.429687 0 46.042968 20.617187 46.042968 46.046875zm0 0" fill="#e0ebfc"/><path d="m461.183594 375.5c0 25.429688-20.613282 46.046875-46.046875 46.046875-25.429688 0-46.042969-20.617187-46.042969-46.046875s20.613281-46.046875 46.042969-46.046875c25.433593 0 46.046875 20.617187 46.046875 46.046875zm0 0" fill="#e0ebfc"/><path d="m361.941406 386.367188h-18.128906c-1.351562 0-2.449219-1.097657-2.449219-2.449219v-6.617188c0-1.351562 1.097657-2.445312 2.449219-2.445312h18.128906c1.351563 0 2.445313 1.09375 2.445313 2.445312v6.617188c0 1.351562-1.09375 2.449219-2.445313 2.449219zm0 0" fill="#f9a7a7"/><path d="m322.847656 375.5c0 17.800781-14.429687 32.230469-32.230468 32.230469-17.800782 0-32.234376-14.429688-32.234376-32.230469s14.433594-32.230469 32.234376-32.230469c17.800781 0 32.230468 14.429688 32.230468 32.230469zm0 0" fill="#a4c9ff"/><path d="m309.035156 366.796875h-10.359375v-10.359375c0-2.546875-2.0625-4.605469-4.605469-4.605469h-6.910156c-2.542968 0-4.601562 2.0625-4.601562 4.605469v10.359375h-10.359375c-2.546875 0-4.605469 2.0625-4.605469 4.601563v6.910156c0 2.542968 2.0625 4.601562 4.605469 4.601562h10.359375v10.363282c0 2.542968 2.0625 4.601562 4.601562 4.601562h6.910156c2.542969 0 4.605469-2.0625 4.605469-4.601562v-10.363282h10.359375c2.542969 0 4.601563-2.058594 4.601563-4.601562v-6.910156c0-2.542969-2.058594-4.601563-4.601563-4.601563zm0 0" fill="#ffea92"/><path d="m449.1875 375.429688c0 17.800781-14.429688 32.230468-32.230469 32.230468s-32.234375-14.429687-32.234375-32.230468c0-17.800782 14.433594-32.230469 32.234375-32.230469s32.230469 14.429687 32.230469 32.230469zm0 0" fill="#a4c9ff"/><path d="m426.164062 358.160156c0 5.089844-4.121093 9.210938-9.207031 9.210938-5.085937 0-9.210937-4.121094-9.210937-9.210938 0-5.085937 4.125-9.207031 9.210937-9.207031 5.085938 0 9.207031 4.121094 9.207031 9.207031zm0 0" fill="#f9a7a7"/><path d="m426.164062 392.695312c0 5.085938-4.121093 9.210938-9.207031 9.210938-5.085937 0-9.210937-4.125-9.210937-9.210938 0-5.085937 4.125-9.210937 9.210937-9.210937 5.085938 0 9.207031 4.125 9.207031 9.210937zm0 0" fill="#f9a7a7"/><path d="m443.433594 375.429688c0 5.085937-4.125 9.210937-9.210938 9.210937-5.085937 0-9.207031-4.125-9.207031-9.210937 0-5.085938 4.121094-9.210938 9.207031-9.210938 5.085938 0 9.210938 4.125 9.210938 9.210938zm0 0" fill="#f9a7a7"/><path d="m408.898438 375.429688c0 5.085937-4.125 9.210937-9.210938 9.210937s-9.210938-4.125-9.210938-9.210937c0-5.085938 4.125-9.210938 9.210938-9.210938s9.210938 4.125 9.210938 9.210938zm0 0" fill="#f9a7a7"/><path d="m445.710938 487.28125c-7.640626 0-14.84375-3.710938-19.28125-9.921875l-37-51.808594h-73.105469l-37 51.808594c-4.4375 6.210937-11.640625 9.921875-19.273438 9.921875-6.550781 0-12.640625-2.609375-17.15625-7.34375-4.511719-4.738281-6.828125-10.945312-6.511719-17.480469l4.191407-87.148437c-.003907-26.625 21.675781-48.953125 48.421875-49.816406.183594-.023438.375-.039063.566406-.039063h126.628906c.191406 0 .382813.015625.570313.042969 26.710937.863281 48.367187 23.136718 48.421875 49.90625l4.183594 87.054687c.316406 6.535157-1.996094 12.742188-6.511719 17.480469-4.511719 4.734375-10.601563 7.34375-17.144531 7.34375zm-131.445313-69.734375h77.222656c1.292969 0 2.503907.625 3.253907 1.675781l38.199218 53.488282c2.9375 4.113281 7.707032 6.570312 12.761719 6.570312 4.339844 0 8.375-1.730469 11.363281-4.867188 2.988282-3.132812 4.519532-7.246093 4.3125-11.570312l-4.1875-87.148438c-.003906-.066406-.003906-.128906-.003906-.191406 0-22.664062-18.429688-41.515625-41.085938-42.023437-.125-.003907-.25-.011719-.371093-.027344h-125.707031c-.125.015625-.246094.023437-.371094.027344-22.65625.507812-41.085938 19.359375-41.085938 42.023437l-4.191406 87.339844c-.210938 4.328125 1.324219 8.4375 4.3125 11.570312 2.992188 3.136719 7.023438 4.867188 11.355469 4.867188 5.0625 0 9.832031-2.457031 12.769531-6.570312l38.199219-53.488282c.75-1.050781 1.960937-1.675781 3.253906-1.675781zm150.917969-42.042969h.019531zm0 0" fill="#3762cc"/><path d="m290.617188 425.546875c-27.597657 0-50.046876-22.449219-50.046876-50.042969 0-27.597656 22.453126-50.046875 50.046876-50.046875s50.042968 22.449219 50.042968 50.046875c0 27.59375-22.449218 50.042969-50.042968 50.042969zm0-92.09375c-23.183594 0-42.046876 18.863281-42.046876 42.046875s18.863282 42.046875 42.046876 42.046875c23.183593 0 42.042968-18.863281 42.042968-42.046875s-18.859375-42.046875-42.042968-42.046875zm0 0" fill="#3762cc"/><path d="m415.136719 425.546875c-27.59375 0-50.042969-22.449219-50.042969-50.042969 0-27.597656 22.449219-50.046875 50.042969-50.046875s50.046875 22.449219 50.046875 50.046875c0 27.59375-22.449219 50.042969-50.046875 50.042969zm0-92.09375c-23.183594 0-42.042969 18.863281-42.042969 42.046875s18.859375 42.046875 42.042969 42.046875c23.183593 0 42.046875-18.863281 42.046875-42.046875s-18.863282-42.046875-42.046875-42.046875zm0 0" fill="#3762cc"/><path d="m311.203125 148.863281h-23.925781c1.207031 6.421875 1.859375 13.039063 1.859375 19.816407v10.042968c.226562-.003906.441406-.03125.667969-.03125 8.351562 0 15.933593 3.21875 21.664062 8.457032v-38.308594c-.089844.003906-.175781.023437-.265625.023437zm0 0" fill="#4671c6"/><path d="m311.46875 191.148438c-.980469 0-1.949219-.359376-2.699219-1.046876-5.226562-4.78125-11.960937-7.410156-18.960937-7.410156-.242188.019532-.417969.027344-.597656.03125-1.101563.015625-2.109376-.394531-2.875-1.144531-.765626-.753906-1.195313-1.78125-1.195313-2.851563v-10.046874c0-6.332032-.601563-12.75-1.792969-19.074219-.21875-1.171875.09375-2.378907.855469-3.292969.757813-.917969 1.886719-1.445312 3.078125-1.445312h23.734375c.117187-.011719.242187-.023438.324219-.023438 1.070312-.015625 2.132812.371094 2.910156 1.121094.777344.753906 1.21875 1.792968 1.21875 2.875v38.3125c0 1.585937-.9375 3.023437-2.390625 3.660156-.515625.226562-1.0625.335938-1.609375.335938zm-18.328125-16.300782c5.050781.46875 9.925781 2.003906 14.328125 4.492188v-26.476563h-15.472656c.761718 5.265625 1.144531 10.566407 1.144531 15.816407zm0 0" fill="#3762cc"/><path d="m56.074219 148.863281v37.699219c5.644531-4.890625 12.980469-7.871094 21.019531-7.871094.226562 0 .445312.027344.667969.03125v-10.042968c0-6.773438.652343-13.394532 1.859375-19.8125h-23.546875zm0 0" fill="#4671c6"/><path d="m56.074219 190.5625c-.5625 0-1.128907-.117188-1.660157-.359375-1.425781-.652344-2.339843-2.074219-2.339843-3.640625v-37.699219c0-2.207031 1.792969-4 4-4h23.546875c1.191406 0 2.320312.53125 3.078125 1.445313.761719.917968 1.074219 2.125.855469 3.292968-1.1875 6.324219-1.789063 12.742188-1.789063 19.078126v10.042968c0 1.074219-.429687 2.101563-1.199219 2.851563-.765625.753906-1.769531 1.203125-2.871094 1.148437-.179687-.003906-.355468-.015625-.535156-.027344-.007812 0-.015625 0-.027344 0-6.789062 0-13.316406 2.449219-18.4375 6.890626-.742187.644531-1.675781.976562-2.621093.976562zm4-37.699219v26.113281c4.234375-2.269531 8.886719-3.683593 13.6875-4.128906v-6.167968c0-5.25.382812-10.550782 1.140625-15.8125h-14.828125zm0 0" fill="#3762cc"/><path d="m352.09375 178.851562h-5.398438v68.398438h5.398438c5.964844 0 10.800781-4.835938 10.800781-10.800781v-46.800781c0-5.960938-4.835937-10.796876-10.800781-10.796876zm0 0" fill="#6bdddd"/><path d="m332.292969 264.777344h-32.398438c-7.953125 0-14.402343-6.449219-14.402343-14.402344v-79.199219c0-7.953125 6.449218-14.398437 14.402343-14.398437h32.398438c7.953125 0 14.402343 6.445312 14.402343 14.398437v79.199219c0 7.953125-6.449218 14.402344-14.402343 14.402344zm0 0" fill="#ffea92"/><path d="m332.292969 268.777344h-32.398438c-10.148437 0-18.402343-8.253906-18.402343-18.402344v-79.199219c0-10.144531 8.253906-18.398437 18.402343-18.398437h32.398438c10.148437 0 18.402343 8.253906 18.402343 18.398437v79.199219c0 10.148438-8.253906 18.402344-18.402343 18.402344zm-32.398438-108c-5.734375 0-10.402343 4.664062-10.402343 10.398437v79.199219c0 5.734375 4.667968 10.402344 10.402343 10.402344h32.398438c5.734375 0 10.402343-4.667969 10.402343-10.402344v-79.199219c0-5.734375-4.667968-10.398437-10.402343-10.398437zm0 0" fill="#3762cc"/><path d="m352.097656 251.25h-5.402344c-2.207031 0-4-1.792969-4-4v-68.398438c0-2.210937 1.792969-4 4-4h5.402344c8.160156 0 14.796875 6.636719 14.796875 14.796876v46.800781c0 8.160156-6.636719 14.800781-14.796875 14.800781zm-1.402344-8h1.398438c3.75 0 6.800781-3.050781 6.800781-6.800781v-46.800781c0-3.75-3.050781-6.796876-6.800781-6.796876h-1.398438zm0 0" fill="#3762cc"/><path d="m20.339844 178.851562h-5.402344c-5.964844 0-10.800781 4.835938-10.800781 10.796876v46.800781c0 5.964843 4.835937 10.800781 10.800781 10.800781h5.402344zm0 0" fill="#6bdddd"/><path d="m64.769531 264.777344h-27.660156c-9.261719 0-16.769531-7.507813-16.769531-16.769532v-74.464843c0-9.261719 7.507812-16.765625 16.769531-16.765625h27.660156c9.261719 0 16.769531 7.507812 16.769531 16.765625v74.464843c0 9.261719-7.507812 16.769532-16.769531 16.769532zm0 0" fill="#ffea92"/><path d="m64.769531 268.777344h-27.660156c-11.453125 0-20.769531-9.316406-20.769531-20.769532v-74.464843c0-11.449219 9.316406-20.765625 20.769531-20.765625h27.660156c11.453125 0 20.769531 9.316406 20.769531 20.765625v74.464843c0 11.453126-9.316406 20.769532-20.769531 20.769532zm-27.660156-108c-7.042969 0-12.769531 5.726562-12.769531 12.765625v74.464843c0 7.039063 5.726562 12.765626 12.769531 12.765626h27.660156c7.042969 0 12.769531-5.726563 12.769531-12.765626v-74.464843c0-7.039063-5.730468-12.765625-12.769531-12.765625zm0 0" fill="#3762cc"/><path d="m20.339844 251.25h-5.398438c-8.160156 0-14.800781-6.636719-14.800781-14.800781v-46.800781c0-8.160157 6.640625-14.796876 14.800781-14.796876h5.398438c2.207031 0 4 1.789063 4 4v68.398438c0 2.207031-1.792969 4-4 4zm-5.402344-68.402344c-3.75 0-6.800781 3.050782-6.800781 6.800782v46.800781c0 3.75 3.050781 6.796875 6.800781 6.796875h1.402344v-60.398438zm0 0" fill="#3762cc"/></svg>