<?xml version="1.0" encoding="iso-8859-1"?>
<!-- Generator: Adobe Illustrator 19.0.0, SVG Export Plug-In . SVG Version: 6.00 Build 0)  -->
<svg version="1.1" id="Capa_1" xmlns="http://www.w3.org/2000/svg" xmlns:xlink="http://www.w3.org/1999/xlink" x="0px" y="0px"
	 viewBox="0 0 512 512" style="enable-background:new 0 0 512 512;" xml:space="preserve">
<g>
	<g>
		<path d="M437.019,74.981C388.667,26.629,324.38,0,256,0S123.332,26.629,74.98,74.981C26.629,123.333,0,187.621,0,256
			s26.629,132.667,74.98,181.019S187.619,512,256,512s132.667-26.629,181.02-74.98S512,324.38,512,256
			S485.371,123.333,437.019,74.981z M415.81,415.81c-42.686,42.687-99.442,66.195-159.81,66.195S138.877,458.497,96.19,415.81
			C53.504,373.124,29.994,316.369,29.994,256S53.504,138.877,96.19,96.191C138.876,53.503,195.632,29.995,256,29.995
			S373.123,53.503,415.81,96.19c42.687,42.688,66.196,99.443,66.196,159.811S458.496,373.124,415.81,415.81z"/>
	</g>
</g>
<g>
	<g>
		<path d="M256,89.719c-31.524,0-57.171,25.646-57.171,57.171s25.646,57.171,57.171,57.171s57.171-25.646,57.171-57.171
			C313.171,115.365,287.524,89.719,256,89.719z M256,174.065c-14.985,0-27.177-12.192-27.177-27.177
			c0-14.985,12.191-27.177,27.177-27.177s27.177,12.192,27.177,27.177C283.177,161.874,270.985,174.065,256,174.065z"/>
	</g>
</g>
<g>
	<g>
		<path d="M256,231.005c-31.524,0-57.171,25.646-57.171,57.171v75.641c0,31.524,25.646,57.171,57.171,57.171
			s57.171-25.646,57.171-57.171v-75.641C313.17,256.651,287.524,231.005,256,231.005z M283.176,363.816
			c0,14.985-12.191,27.177-27.177,27.177s-27.177-12.192-27.177-27.177v-75.641c0-14.985,12.191-27.177,27.177-27.177
			s27.177,12.192,27.177,27.177V363.816z"/>
	</g>
</g>
<g>
</g>
<g>
</g>
<g>
</g>
<g>
</g>
<g>
</g>
<g>
</g>
<g>
</g>
<g>
</g>
<g>
</g>
<g>
</g>
<g>
</g>
<g>
</g>
<g>
</g>
<g>
</g>
<g>
</g>
</svg>
