<?xml version="1.0" encoding="iso-8859-1"?>
<!-- Generator: Adobe Illustrator 19.0.0, SVG Export Plug-In . SVG Version: 6.00 Build 0)  -->
<svg version="1.1" id="Capa_1" xmlns="http://www.w3.org/2000/svg" xmlns:xlink="http://www.w3.org/1999/xlink" x="0px" y="0px"
	 viewBox="0 0 512 512" style="enable-background:new 0 0 512 512;" xml:space="preserve">
<g>
	<g>
		<path d="M391.5,211c-33.359,0-60.5,27.141-60.5,60.5s27.141,60.5,60.5,60.5s60.5-27.141,60.5-60.5S424.859,211,391.5,211z
			 M391.5,302c-16.817,0-30.5-13.683-30.5-30.5c0-16.817,13.683-30.5,30.5-30.5c16.817,0,30.5,13.683,30.5,30.5
			S408.317,302,391.5,302z"/>
	</g>
</g>
<g>
	<g>
		<path d="M115,0C51.589,0,0,51.589,0,115v282c0,63.411,51.589,115,115,115h126V0H115z M211,482h-96c-46.869,0-85-38.131-85-85V115
			c0-46.869,38.131-85,85-85h96V482z"/>
	</g>
</g>
<g>
	<g>
		<path d="M397,0H271v512h126c63.411,0,115-51.589,115-115V115C512,51.589,460.411,0,397,0z M482,397c0,46.869-38.131,85-85,85h-96
			V30h96c46.869,0,85,38.131,85,85V397z"/>
	</g>
</g>
<g>
	<g>
		<path d="M120.5,90C87.141,90,60,117.141,60,150.5S87.141,211,120.5,211s60.5-27.141,60.5-60.5S153.859,90,120.5,90z M120.5,181
			c-16.817,0-30.5-13.683-30.5-30.5s13.683-30.5,30.5-30.5s30.5,13.683,30.5,30.5S137.317,181,120.5,181z"/>
	</g>
</g>
<g>
</g>
<g>
</g>
<g>
</g>
<g>
</g>
<g>
</g>
<g>
</g>
<g>
</g>
<g>
</g>
<g>
</g>
<g>
</g>
<g>
</g>
<g>
</g>
<g>
</g>
<g>
</g>
<g>
</g>
</svg>
