<svg xmlns="http://www.w3.org/2000/svg"  viewBox="0 0 48 48" width="48px" height="48px"><linearGradient id="Ag8JuWv~xU2d_onQOuMhea" x1="24" x2="24" y1="4.009" y2="44.237" gradientUnits="userSpaceOnUse"><stop offset="0" stop-color="#f80"/><stop offset="1" stop-color="#ff6000"/></linearGradient><path fill="url(#Ag8JuWv~xU2d_onQOuMhea)" d="M40,24.005c0-0.002,0-0.003,0-0.005v-0.001c0-0.001,0-0.001,0-0.002	c0-0.073-0.01-0.145-0.011-0.218C39.869,15.045,32.762,8,24,8c-0.648,0-1.284,0.05-1.912,0.125c0.165-2.189,1.866-4.541,1.866-4.541	c0.188-0.379-0.24-0.739-0.608-0.521C20.439,4.773,8,10.083,8,23.997c0,0,0,0.001,0,0.002V24c0,8.836,7.163,16,16,16	c0.648,0,1.283-0.05,1.911-0.125c-0.168,2.188-1.866,4.534-1.866,4.534c-0.188,0.379,0.24,0.739,0.608,0.521	C27.557,43.222,40,38.083,40,24.005z M30,24c0,3.314-2.686,6-6,6s-6-2.686-6-6s2.686-6,6-6S30,20.686,30,24z"/></svg>