<svg fill="#000000" xmlns="http://www.w3.org/2000/svg"  viewBox="0 0 50 50" width="50px" height="50px"><path d="M31.3,7.6L19.3,4C19,4,18.7,4,18.4,4.2C18.1,4.4,18,4.7,18,5v36.6c0,0.4,0.3,0.8,0.7,1l8,2.4c0.1,0,0.2,0,0.3,0c0.2,0,0.4-0.1,0.6-0.2c0.3-0.2,0.4-0.5,0.4-0.8V13.4c0.6,0.3,1,0.9,1,1.6v11.1c0,0.3,0.2,0.7,0.5,0.8c0.2,0.1,1.7,1,4.5,1c2.7,0,6-1.5,6-8.6C40,13.6,36.8,9.3,31.3,7.6z"/><path d="M50 34c-.1-2.2-2.8-3.3-4.7-3.9-2.8-.9-5.8-1.3-8.8-1.2-2.4.1-4.9.5-7.5 1.2v4.6c1.1-.4 2.6-.9 4.7-1.7 4.8-1.7 6.8-1.5 7.4-1.3 1.2.1 1.7.8 1.9 1.3.5 1.5-1.4 2.2-4.2 3.2-1.3.5-6.9 2.5-9.8 3.5v4.6l15.5-5.5 1.2-.5C47.7 37.6 50.2 36.3 50 34zM17 36c-.9.3-1.9.7-2.7 1-1.6.6-2.8.8-3.8.8C9 37.8 8.3 37.3 8 37c-.4-.3-.6-.7-.5-1.2.1-1 1.3-1.9 3.5-2.7.5-.2 3.9-1.4 6-2.1v-4.6l-11.1 4L4.3 31C1.6 32.1 0 33.9 0 35.7c0 3.8 2.7 6 7.5 6 0 0 0 0 0 0 2.6 0 5.8-.6 9.5-1.9V36z"/></svg>