<svg height="512" viewBox="0 0 64 64" width="512" xmlns="http://www.w3.org/2000/svg"><g id="Gamer-Joystick-Video_Game-Player-Avatar" data-name="Gamer-Joystick-Video Game-Player-Avatar"><path d="m42 58v2h-30v-9h-2v9h-6v-8.65a8.959 8.959 0 0 1 6.32-8.59l4.24-1.32c1.29 2.69 4.65 4.56 8.44 4.56s7.15-1.87 8.44-4.56l4.24 1.32.05.02.32-1.12.32-.77-.09-.03-8.28-2.6v-1.47a11.043 11.043 0 0 0 5.81-7.79h1.19a5 5 0 0 0 2-9.58v-4.42a13.012 13.012 0 0 0 -13-13h-2a13.012 13.012 0 0 0 -13 13v4.42a5 5 0 0 0 2 9.58h1.19a11.043 11.043 0 0 0 5.81 7.79v1.47l-8.28 2.59a10.945 10.945 0 0 0 -7.72 10.5v9.65a1 1 0 0 0 1 1h40a1 1 0 0 0 1-1v-3zm-10-39.26c-1.31-.63-2.43-2.44-2.82-4.79a1 1 0 0 0 -1.34-.77 15 15 0 0 1 -9.68 0 1.052 1.052 0 0 0 -.85.07 1.012 1.012 0 0 0 -.49.7c-.39 2.35-1.51 4.16-2.82 4.79v-1.74a9 9 0 0 1 18 0zm6 5.26a3.009 3.009 0 0 1 -3 3h-1v-6h1a3.009 3.009 0 0 1 3 3zm-26 3h-1a3 3 0 0 1 0-6h1zm0-10v2h-1v-4a11.007 11.007 0 0 1 11-11h2a11.007 11.007 0 0 1 11 11v4h-1v-2a11 11 0 0 0 -22 0zm2 10v-6.13c2.05-.52 3.78-2.58 4.55-5.46a17.218 17.218 0 0 0 8.9 0c.77 2.88 2.5 4.94 4.55 5.46v6.13a9 9 0 0 1 -18 0zm12 10.57v1.43c0 .25-1.06 1-3 1s-3-.75-3-1v-1.43a10.68 10.68 0 0 0 6 0zm-7.58 2.66c.75 1.06 2.47 1.77 4.58 1.77s3.83-.71 4.58-1.77l1.93.6c-1.05 1.88-3.6 3.17-6.51 3.17s-5.46-1.29-6.51-3.17z"/><path d="m17 22h2v2h-2z"/><path d="m27 22h2v2h-2z"/><path d="m26.772 29.333-1.886-.666a2 2 0 0 1 -3.772 0l-1.886.666a4 4 0 0 0 7.544 0z"/><path d="m53 42h-12a8.011 8.011 0 0 0 -8 8v5a3.009 3.009 0 0 0 3 3h3a1.076 1.076 0 0 0 .62-.21l4.52-3.58a1.076 1.076 0 0 1 .62-.21h4.48a1.02 1.02 0 0 1 .62.22l4.52 3.57a1.076 1.076 0 0 0 .62.21h3a3.009 3.009 0 0 0 3-3v-5a8.011 8.011 0 0 0 -8-8zm6 13a1 1 0 0 1 -1 1h-2.65l-4.25-3.35a3.006 3.006 0 0 0 -1.86-.65h-4.48a3.006 3.006 0 0 0 -1.86.65l-4.25 3.35h-2.65a1 1 0 0 1 -1-1v-5a6 6 0 0 1 6-6h12a6 6 0 0 1 6 6z"/><path d="m41 46h-2v2h-2v2h2v2h2v-2h2v-2h-2z"/><path d="m53 46h2v2h-2z"/><path d="m55 48h2v2h-2z"/><path d="m53 50h2v2h-2z"/><path d="m51 48h2v2h-2z"/><path d="m44 46h2v2h-2z"/><path d="m48 46h2v2h-2z"/></g></svg>