<svg xmlns="http://www.w3.org/2000/svg"  viewBox="0 0 64 64" width="64px" height="64px"><path fill="#7bbeeb" d="M58.988,30.166L58.988,30.166c-0.196-6.463-2.664-12.355-6.631-16.905l1.574-1.237 c-1.726-1.993-3.719-3.748-5.923-5.21C43.42,3.772,37.917,2,32,2c-5.928,0-11.44,1.779-16.033,4.831 c-2.176,1.446-4.146,3.179-5.855,5.144l1.535,1.283C7.678,17.808,5.129,23.7,5.008,30.163l0.005,0.003C3.841,30.575,3,31.689,3,33v5 c0,1.657,1.343,3,3,3h5v-8v-2c0-11.598,9.402-21,21-21c11.598,0,21,9.402,21,21v2v8h5c1.657,0,3-1.343,3-3v-5 C61,31.689,60.159,30.575,58.988,30.166z"/><path fill="#7bbeeb" d="M25.333 38c-1.389-1.191-4.083-3-6.417-3S16 37.5 16 39c0 7.251 5.547 6.998 9.43 6.998 1.664 0 4.57 0 4.57-1.999C30 42.999 28.833 40.999 25.333 38zM39.334 39.455C40.624 38.479 43.125 37 45.291 37S48 39.045 48 40.272c0 5.934-5.151 5.727-8.757 5.727-1.545 0-4.243 0-4.243-1.636C35 43.546 36.084 41.91 39.334 39.455zM53.021 47c0 0-3.247 7.282-9.839 10.923C36.592 61.566 30 61.566 30 61.566s14.135 2.289 20.829-3.641C56.311 53.069 53.021 47 53.021 47z"/><path fill="none" stroke="#8d6c9f" stroke-linejoin="round" stroke-miterlimit="10" stroke-width="2" d="M58.988,30.166 L58.988,30.166c-0.196-6.463-2.664-12.355-6.631-16.905l1.574-1.237c-1.726-1.993-3.719-3.748-5.923-5.21C43.42,3.772,37.917,2,32,2 c-5.928,0-11.44,1.779-16.033,4.831c-2.176,1.446-4.146,3.179-5.855,5.144l1.535,1.283C7.678,17.808,5.129,23.7,5.008,30.163 l0.005,0.003C3.841,30.575,3,31.689,3,33v5c0,1.657,1.343,3,3,3h5v-8v-2c0-11.598,9.402-21,21-21c11.598,0,21,9.402,21,21v2v8h5 c1.657,0,3-1.343,3-3v-5C61,31.689,60.159,30.575,58.988,30.166z"/><path fill="none" stroke="#8d6c9f" stroke-miterlimit="10" stroke-width="2" d="M25.333 38c-1.389-1.191-4.083-3-6.417-3S16 37.5 16 39c0 7.251 5.547 6.998 9.43 6.998 1.664 0 4.57 0 4.57-1.999C30 42.999 28.833 40.999 25.333 38zM39.334 39.455C40.624 38.479 43.125 37 45.291 37S48 39.045 48 40.272c0 5.934-5.151 5.727-8.757 5.727-1.545 0-4.243 0-4.243-1.636C35 43.546 36.084 41.91 39.334 39.455z"/><path fill="none" stroke="#8d6c9f" stroke-linejoin="round" stroke-miterlimit="10" stroke-width="2" d="M53.021,47 c0,0-3.247,7.282-9.839,10.923C36.592,61.566,30,61.566,30,61.566s14.135,2.289,20.829-3.641C56.311,53.069,53.021,47,53.021,47z"/><path fill="none" stroke="#8d6c9f" stroke-linecap="round" stroke-miterlimit="10" stroke-width="2" d="M24.884 17.796L23.934 16.036M29.538 16.205L29.212 14.232M34.462 16.205L34.788 14.232M39.116 17.796L40.067 16.036"/></svg>