<?xml version="1.0" encoding="iso-8859-1"?>
<!-- Generator: Adobe Illustrator 19.0.0, SVG Export Plug-In . SVG Version: 6.00 Build 0)  -->
<svg version="1.1" id="Capa_1" xmlns="http://www.w3.org/2000/svg" xmlns:xlink="http://www.w3.org/1999/xlink" x="0px" y="0px"
	 viewBox="0 0 512 512" style="enable-background:new 0 0 512 512;" xml:space="preserve">
<g>
	<g>
		<path d="M256.6,209.216c-9.601,0.268-18.979,1.44-28.058,3.422c-37.591,10.806-65.173,45.502-65.173,86.522
			c0,49.631,40.378,90.008,90.008,90.008c49.631,0,90.008-40.378,90.008-90.008C343.386,250.609,304.744,210.919,256.6,209.216z"/>
	</g>
</g>
<g>
	<g>
		<path d="M434.415,74.987C386.057,26.631,321.764,0,253.378,0S120.699,26.631,72.343,74.987
			C36.456,110.873,12.549,155.54,2.598,204.14c33.648-61.087,98.666-102.572,173.198-102.572
			c107.919,0,195.893,86.969,197.554,194.5c0.026,1.028,0.039,2.059,0.039,3.093c0,66.174-53.837,120.011-120.011,120.011
			S133.367,365.334,133.367,299.16c0-8.131,0.817-16.074,2.365-23.756c-16.588,24.289-26.301,53.627-26.301,85.195
			c0,82.288,65.968,149.455,147.796,151.401c66.945-0.981,129.739-27.493,177.186-74.941
			c48.357-48.356,74.989-112.649,74.989-181.036S482.77,123.344,434.415,74.987z"/>
	</g>
</g>
<g>
	<g>
		<path d="M302.619,189.722c-30.755-35.591-76.203-58.152-126.823-58.152c-92.409,0-167.59,75.181-167.59,167.59
			c0,23.39,4.787,46.165,14.004,67.192c12.388,25.908,29.225,49.8,50.133,70.706c14.475,14.475,30.387,26.987,47.4,37.436
			c-25.197-31.161-40.314-70.793-40.314-113.896c0-86.461,60.79-158.98,141.871-177.089c10.215-2.837,20.972-4.36,32.078-4.36
			c1.145,0,2.285,0.02,3.422,0.052c1.356-0.03,2.715-0.052,4.078-0.052v0.241C275.67,180.308,289.747,183.907,302.619,189.722z"/>
	</g>
</g>
<g>
</g>
<g>
</g>
<g>
</g>
<g>
</g>
<g>
</g>
<g>
</g>
<g>
</g>
<g>
</g>
<g>
</g>
<g>
</g>
<g>
</g>
<g>
</g>
<g>
</g>
<g>
</g>
<g>
</g>
</svg>
