<svg fill="#000000" xmlns="http://www.w3.org/2000/svg"  viewBox="0 0 50 50" width="50px" height="50px"><path d="M41.863,9.4c-0.1-0.1-0.2-0.2-0.299-0.3C40.766,8.2,39.588,8,38.69,8c-0.653,0-4.895,1.343-9.359,5.299c-0.422,0.374-0.44,1.027-0.048,1.432c1.617,1.671,6.039,5.95,8.689,10.169c3.293,5.4,5.289,9.7,4.091,15.6C45.755,36.4,48.05,31,48.05,25C47.95,19,45.655,13.5,41.863,9.4z"/><path d="M25.663 19.294c-.383-.344-.955-.341-1.335.007-1.69 1.547-6.051 5.876-7.012 6.999-2.295 2.4-8.681 10-9.08 14.3 0 0-1.397-3.4 1.696-11.2 1.925-4.686 7.904-11.652 10.803-14.691.385-.403.376-1.039-.031-1.421-.96-.899-3.198-2.475-5.215-3.688l0 0C14.093 8.7 12.497 8.1 11 8 9.403 8 8.237 9.3 8.237 9.3 4.445 13.4 2.05 18.9 2.05 25c0 12.7 10.278 23 22.95 23 6.685 0 12.772-2.9 16.963-7.5 0 0-.499-3-3.592-7.4C34.912 27.883 27.906 21.311 25.663 19.294zM25 2c-4.291 0-8.382 1.2-11.774 3.3-.219.073-.597.361-.941.666 3.045-2.419 10.086 2.427 12.142 3.87.346.243.801.243 1.147 0 2.056-1.443 9.097-6.29 12.142-3.87-.344-.305-.723-.593-.941-.666C33.382 3.2 29.291 2 25 2zM12.052 6.182c.076-.075.151-.151.233-.215-.082.073-.156.143-.231.215H12.052z"/></svg>